<svg width="565" height="54" viewBox="0 0 565 54" fill="none" xmlns="http://www.w3.org/2000/svg">
<path d="M0 5C0 2.23858 2.23858 0 5 0H560C562.761 0 565 2.23858 565 5V49C565 51.7614 562.761 54 560 54H5C2.23858 54 0 51.7614 0 49V5Z" fill="#551851"/>
<path d="M224.2 34C224.053 34 223.94 33.96 223.86 33.88C223.78 33.7867 223.74 33.6733 223.74 33.54V20.48C223.74 20.3333 223.78 20.22 223.86 20.14C223.94 20.0467 224.053 20 224.2 20H234.06C234.207 20 234.32 20.0467 234.4 20.14C234.493 20.22 234.54 20.3333 234.54 20.48V33.54C234.54 33.6733 234.493 33.7867 234.4 33.88C234.32 33.96 234.207 34 234.06 34H233.04C232.907 34 232.793 33.96 232.7 33.88C232.62 33.7867 232.58 33.6733 232.58 33.54V21.8H225.7V33.54C225.7 33.6733 225.653 33.7867 225.56 33.88C225.48 33.96 225.367 34 225.22 34H224.2ZM238.218 37.8C238.084 37.8 237.971 37.7533 237.878 37.66C237.798 37.58 237.758 37.4733 237.758 37.34V24.06C237.758 23.9267 237.798 23.82 237.878 23.74C237.971 23.6467 238.084 23.6 238.218 23.6H239.138C239.271 23.6 239.378 23.6467 239.458 23.74C239.551 23.82 239.598 23.9267 239.598 24.06V24.94C239.918 24.5 240.344 24.1333 240.878 23.84C241.411 23.5467 242.078 23.4 242.878 23.4C243.624 23.4 244.258 23.5267 244.778 23.78C245.311 24.0333 245.744 24.38 246.078 24.82C246.424 25.26 246.684 25.76 246.858 26.32C247.031 26.88 247.124 27.48 247.138 28.12C247.151 28.3333 247.158 28.56 247.158 28.8C247.158 29.04 247.151 29.2667 247.138 29.48C247.124 30.1067 247.031 30.7067 246.858 31.28C246.684 31.84 246.424 32.34 246.078 32.78C245.744 33.2067 245.311 33.5533 244.778 33.82C244.258 34.0733 243.624 34.2 242.878 34.2C242.104 34.2 241.451 34.06 240.918 33.78C240.398 33.4867 239.971 33.1267 239.638 32.7V37.34C239.638 37.4733 239.598 37.58 239.518 37.66C239.438 37.7533 239.324 37.8 239.178 37.8H238.218ZM242.458 32.58C243.151 32.58 243.691 32.4333 244.078 32.14C244.478 31.8333 244.764 31.44 244.938 30.96C245.111 30.4667 245.211 29.94 245.238 29.38C245.251 28.9933 245.251 28.6067 245.238 28.22C245.211 27.66 245.111 27.14 244.938 26.66C244.764 26.1667 244.478 25.7733 244.078 25.48C243.691 25.1733 243.151 25.02 242.458 25.02C241.804 25.02 241.271 25.1733 240.858 25.48C240.458 25.7867 240.158 26.18 239.958 26.66C239.771 27.1267 239.664 27.6067 239.638 28.1C239.624 28.3133 239.618 28.5667 239.618 28.86C239.618 29.1533 239.624 29.4133 239.638 29.64C239.651 30.1067 239.758 30.5667 239.958 31.02C240.171 31.4733 240.484 31.8467 240.898 32.14C241.311 32.4333 241.831 32.58 242.458 32.58ZM253.912 34.2C252.899 34.2 252.052 34.0067 251.372 33.62C250.692 33.2333 250.172 32.7 249.812 32.02C249.452 31.3267 249.252 30.54 249.212 29.66C249.199 29.4333 249.192 29.1467 249.192 28.8C249.192 28.44 249.199 28.1533 249.212 27.94C249.252 27.0467 249.452 26.26 249.812 25.58C250.185 24.9 250.712 24.3667 251.392 23.98C252.072 23.5933 252.912 23.4 253.912 23.4C254.912 23.4 255.752 23.5933 256.432 23.98C257.112 24.3667 257.632 24.9 257.992 25.58C258.365 26.26 258.572 27.0467 258.612 27.94C258.625 28.1533 258.632 28.44 258.632 28.8C258.632 29.1467 258.625 29.4333 258.612 29.66C258.572 30.54 258.372 31.3267 258.012 32.02C257.652 32.7 257.132 33.2333 256.452 33.62C255.772 34.0067 254.925 34.2 253.912 34.2ZM253.912 32.66C254.739 32.66 255.399 32.4 255.892 31.88C256.385 31.3467 256.652 30.5733 256.692 29.56C256.705 29.36 256.712 29.1067 256.712 28.8C256.712 28.4933 256.705 28.24 256.692 28.04C256.652 27.0267 256.385 26.26 255.892 25.74C255.399 25.2067 254.739 24.94 253.912 24.94C253.085 24.94 252.419 25.2067 251.912 25.74C251.419 26.26 251.159 27.0267 251.132 28.04C251.119 28.24 251.112 28.4933 251.112 28.8C251.112 29.1067 251.119 29.36 251.132 29.56C251.159 30.5733 251.419 31.3467 251.912 31.88C252.419 32.4 253.085 32.66 253.912 32.66ZM260.536 36.2C260.403 36.2 260.29 36.1533 260.196 36.06C260.116 35.98 260.076 35.8733 260.076 35.74V32.86C260.076 32.7267 260.116 32.62 260.196 32.54C260.29 32.4467 260.403 32.4 260.536 32.4H260.636C260.996 32.3867 261.303 32.1867 261.556 31.8C261.81 31.4 262.003 30.78 262.136 29.94C262.27 29.0867 262.336 27.98 262.336 26.62V24.06C262.336 23.9267 262.376 23.82 262.456 23.74C262.55 23.6467 262.663 23.6 262.796 23.6H269.176C269.31 23.6 269.416 23.6467 269.496 23.74C269.59 23.82 269.636 23.9267 269.636 24.06V32.36H270.576C270.723 32.36 270.836 32.4067 270.916 32.5C270.996 32.58 271.036 32.6867 271.036 32.82V35.74C271.036 35.8733 270.996 35.98 270.916 36.06C270.836 36.1533 270.723 36.2 270.576 36.2H269.636C269.503 36.2 269.39 36.1533 269.296 36.06C269.216 35.98 269.176 35.8733 269.176 35.74V34H261.936V35.74C261.936 35.8733 261.89 35.98 261.796 36.06C261.716 36.1533 261.61 36.2 261.476 36.2H260.536ZM263.016 32.4L267.776 32.36V25.2H264.156V26.84C264.156 28.2533 264.056 29.4133 263.856 30.32C263.656 31.2133 263.376 31.9067 263.016 32.4ZM277.388 34.2C276.375 34.2 275.528 34.0067 274.848 33.62C274.168 33.2333 273.648 32.7 273.288 32.02C272.928 31.3267 272.728 30.54 272.688 29.66C272.675 29.4333 272.668 29.1467 272.668 28.8C272.668 28.44 272.675 28.1533 272.688 27.94C272.728 27.0467 272.928 26.26 273.288 25.58C273.662 24.9 274.188 24.3667 274.868 23.98C275.548 23.5933 276.388 23.4 277.388 23.4C278.388 23.4 279.228 23.5933 279.908 23.98C280.588 24.3667 281.108 24.9 281.468 25.58C281.842 26.26 282.048 27.0467 282.088 27.94C282.102 28.1533 282.108 28.44 282.108 28.8C282.108 29.1467 282.102 29.4333 282.088 29.66C282.048 30.54 281.848 31.3267 281.488 32.02C281.128 32.7 280.608 33.2333 279.928 33.62C279.248 34.0067 278.402 34.2 277.388 34.2ZM277.388 32.66C278.215 32.66 278.875 32.4 279.368 31.88C279.862 31.3467 280.128 30.5733 280.168 29.56C280.182 29.36 280.188 29.1067 280.188 28.8C280.188 28.4933 280.182 28.24 280.168 28.04C280.128 27.0267 279.862 26.26 279.368 25.74C278.875 25.2067 278.215 24.94 277.388 24.94C276.562 24.94 275.895 25.2067 275.388 25.74C274.895 26.26 274.635 27.0267 274.608 28.04C274.595 28.24 274.588 28.4933 274.588 28.8C274.588 29.1067 274.595 29.36 274.608 29.56C274.635 30.5733 274.895 31.3467 275.388 31.88C275.895 32.4 276.562 32.66 277.388 32.66ZM283.937 34C283.804 34 283.69 33.9533 283.597 33.86C283.504 33.7667 283.457 33.6533 283.457 33.52V32.78C283.457 32.5 283.597 32.3533 283.877 32.34C284.29 32.3267 284.637 32.1333 284.917 31.76C285.197 31.3733 285.41 30.7667 285.557 29.94C285.704 29.1 285.777 27.9933 285.777 26.62V24.06C285.777 23.9267 285.817 23.82 285.897 23.74C285.99 23.6467 286.104 23.6 286.237 23.6H292.597C292.73 23.6 292.837 23.6467 292.917 23.74C293.01 23.82 293.057 23.9267 293.057 24.06V33.54C293.057 33.6733 293.01 33.7867 292.917 33.88C292.837 33.96 292.73 34 292.597 34H291.637C291.504 34 291.397 33.96 291.317 33.88C291.237 33.7867 291.197 33.6733 291.197 33.54V25.2H287.597V26.84C287.597 28.12 287.524 29.22 287.377 30.14C287.23 31.0467 287.004 31.7867 286.697 32.36C286.404 32.92 286.024 33.3333 285.557 33.6C285.104 33.8667 284.564 34 283.937 34ZM295.419 34C295.299 34 295.199 33.9733 295.119 33.92C295.052 33.8667 295.019 33.7867 295.019 33.68C295.019 33.6133 295.052 33.5267 295.119 33.42L298.539 28.56L295.519 24.16C295.492 24.12 295.472 24.08 295.459 24.04C295.445 23.9867 295.439 23.9467 295.439 23.92C295.439 23.8133 295.472 23.7333 295.539 23.68C295.619 23.6267 295.719 23.6 295.839 23.6H296.879C297.012 23.6 297.119 23.6267 297.199 23.68C297.279 23.7333 297.352 23.8067 297.419 23.9L300.119 27.9H301.639V24.06C301.639 23.9267 301.679 23.82 301.759 23.74C301.852 23.6467 301.965 23.6 302.099 23.6H303.019C303.165 23.6 303.279 23.6467 303.359 23.74C303.439 23.82 303.479 23.9267 303.479 24.06V27.9H304.939L307.679 23.9C307.732 23.8067 307.799 23.7333 307.879 23.68C307.972 23.6267 308.079 23.6 308.199 23.6H309.259C309.379 23.6 309.472 23.6267 309.539 23.68C309.619 23.7333 309.659 23.8133 309.659 23.92C309.659 23.9467 309.645 23.9867 309.619 24.04C309.605 24.08 309.585 24.12 309.559 24.16L306.559 28.56L309.979 33.42C310.032 33.5 310.059 33.5867 310.059 33.68C310.059 33.7867 310.025 33.8667 309.959 33.92C309.892 33.9733 309.792 34 309.659 34H308.459C308.325 34 308.212 33.9733 308.119 33.92C308.039 33.8667 307.972 33.7933 307.919 33.7L304.999 29.5H303.479V33.54C303.479 33.6733 303.439 33.7867 303.359 33.88C303.279 33.96 303.165 34 303.019 34H302.099C301.965 34 301.852 33.96 301.759 33.88C301.679 33.7867 301.639 33.6733 301.639 33.54V29.5H300.119L297.159 33.7C297.119 33.7933 297.052 33.8667 296.959 33.92C296.879 33.9733 296.772 34 296.639 34H295.419ZM312.436 34C312.316 34 312.209 33.96 312.116 33.88C312.036 33.7867 311.996 33.6867 311.996 33.58V24.06C311.996 23.9267 312.036 23.82 312.116 23.74C312.209 23.6467 312.322 23.6 312.456 23.6H313.416C313.549 23.6 313.656 23.6467 313.736 23.74C313.816 23.82 313.856 23.9267 313.856 24.06V32.54L313.336 32L319.396 23.9C319.462 23.82 319.536 23.7533 319.616 23.7C319.696 23.6333 319.796 23.6 319.916 23.6H320.836C320.942 23.6 321.036 23.64 321.116 23.72C321.209 23.8 321.256 23.8933 321.256 24V33.54C321.256 33.6733 321.209 33.7867 321.116 33.88C321.036 33.96 320.929 34 320.796 34H319.856C319.709 34 319.596 33.96 319.516 33.88C319.436 33.7867 319.396 33.6733 319.396 33.54V25.56L319.956 25.54L313.856 33.7C313.802 33.7667 313.736 33.8333 313.656 33.9C313.576 33.9667 313.469 34 313.336 34H312.436ZM327.363 34C327.23 34 327.116 33.96 327.023 33.88C326.943 33.7867 326.903 33.6733 326.903 33.54V25.2H323.423C323.29 25.2 323.176 25.16 323.083 25.08C323.003 24.9867 322.963 24.8733 322.963 24.74V24.06C322.963 23.9267 323.003 23.82 323.083 23.74C323.176 23.6467 323.29 23.6 323.423 23.6H332.223C332.356 23.6 332.463 23.6467 332.543 23.74C332.636 23.82 332.683 23.9267 332.683 24.06V24.74C332.683 24.8733 332.636 24.9867 332.543 25.08C332.463 25.16 332.356 25.2 332.223 25.2H328.743V33.54C328.743 33.6733 328.703 33.7867 328.623 33.88C328.543 33.96 328.43 34 328.283 34H327.363ZM334.878 34C334.744 34 334.631 33.96 334.538 33.88C334.458 33.7867 334.418 33.6733 334.418 33.54V24.06C334.418 23.9267 334.458 23.82 334.538 23.74C334.631 23.6467 334.744 23.6 334.878 23.6H335.838C335.971 23.6 336.078 23.6467 336.158 23.74C336.251 23.82 336.298 23.9267 336.298 24.06V27H338.538C339.898 27 340.891 27.32 341.518 27.96C342.144 28.6 342.458 29.4667 342.458 30.56C342.458 31.7333 342.111 32.6 341.418 33.16C340.724 33.72 339.684 34 338.298 34H334.878ZM336.278 32.5H338.378C339.178 32.5 339.764 32.36 340.138 32.08C340.511 31.7867 340.698 31.28 340.698 30.56C340.698 29.8667 340.518 29.3533 340.158 29.02C339.798 28.6733 339.204 28.5 338.378 28.5H336.278V32.5Z" fill="white"/>
</svg>
