<svg width="565" height="50" viewBox="0 0 565 50" fill="none" xmlns="http://www.w3.org/2000/svg">
<path d="M5 1H560C562.209 1 564 2.79086 564 5V45C564 47.2091 562.209 49 560 49H5C2.79086 49 1 47.2091 1 45V5C1 2.79086 2.79086 1 5 1Z" stroke="#692165" stroke-width="2"/>
<path d="M17.2 32C17.0533 32 16.94 31.96 16.86 31.88C16.78 31.7867 16.74 31.6733 16.74 31.54V18.48C16.74 18.3333 16.78 18.22 16.86 18.14C16.94 18.0467 17.0533 18 17.2 18H25.46C25.6067 18 25.72 18.0467 25.8 18.14C25.88 18.22 25.92 18.3333 25.92 18.48V19.24C25.92 19.3867 25.88 19.5 25.8 19.58C25.72 19.66 25.6067 19.7 25.46 19.7H18.66V24.08H25.02C25.1667 24.08 25.28 24.1267 25.36 24.22C25.44 24.3 25.48 24.4133 25.48 24.56V25.3C25.48 25.4333 25.44 25.5467 25.36 25.64C25.28 25.72 25.1667 25.76 25.02 25.76H18.66V30.3H25.62C25.7667 30.3 25.88 30.34 25.96 30.42C26.04 30.5 26.08 30.6133 26.08 30.76V31.54C26.08 31.6733 26.04 31.7867 25.96 31.88C25.88 31.96 25.7667 32 25.62 32H17.2ZM28.6759 26.84C28.5426 26.84 28.4293 26.8 28.3359 26.72C28.2559 26.6267 28.2159 26.5133 28.2159 26.38V25.62C28.2159 25.4867 28.2559 25.38 28.3359 25.3C28.4293 25.2067 28.5426 25.16 28.6759 25.16H34.6759C34.8093 25.16 34.9159 25.2067 34.9959 25.3C35.0893 25.38 35.1359 25.4867 35.1359 25.62V26.38C35.1359 26.5133 35.0893 26.6267 34.9959 26.72C34.9159 26.8 34.8093 26.84 34.6759 26.84H28.6759ZM38.5867 32C38.4534 32 38.3401 31.96 38.2467 31.88C38.1667 31.7867 38.1267 31.6733 38.1267 31.54V18.48C38.1267 18.3333 38.1667 18.22 38.2467 18.14C38.3401 18.0467 38.4534 18 38.5867 18H39.5867C39.7467 18 39.8667 18.04 39.9467 18.12C40.0267 18.2 40.0734 18.2667 40.0867 18.32L44.3267 26.4L48.5867 18.32C48.6134 18.2667 48.6601 18.2 48.7267 18.12C48.8067 18.04 48.9267 18 49.0867 18H50.0667C50.2134 18 50.3267 18.0467 50.4067 18.14C50.5001 18.22 50.5467 18.3333 50.5467 18.48V31.54C50.5467 31.6733 50.5001 31.7867 50.4067 31.88C50.3267 31.96 50.2134 32 50.0667 32H49.0867C48.9534 32 48.8401 31.96 48.7467 31.88C48.6667 31.7867 48.6267 31.6733 48.6267 31.54V21.7L45.2867 28.22C45.2334 28.3533 45.1534 28.46 45.0467 28.54C44.9401 28.6067 44.8067 28.64 44.6467 28.64H44.0267C43.8534 28.64 43.7134 28.6067 43.6067 28.54C43.5134 28.46 43.4334 28.3533 43.3667 28.22L40.0267 21.7V31.54C40.0267 31.6733 39.9801 31.7867 39.8867 31.88C39.8067 31.96 39.7001 32 39.5667 32H38.5867ZM56.6456 32.2C55.979 32.2 55.3723 32.0667 54.8256 31.8C54.279 31.5333 53.839 31.1733 53.5056 30.72C53.1723 30.2667 53.0056 29.7533 53.0056 29.18C53.0056 28.26 53.379 27.5267 54.1256 26.98C54.8723 26.4333 55.8456 26.0733 57.0456 25.9L60.0256 25.48V24.9C60.0256 24.26 59.839 23.76 59.4656 23.4C59.1056 23.04 58.5123 22.86 57.6856 22.86C57.0856 22.86 56.599 22.98 56.2256 23.22C55.8656 23.46 55.6123 23.7667 55.4656 24.14C55.3856 24.34 55.2456 24.44 55.0456 24.44H54.1456C53.999 24.44 53.8856 24.4 53.8056 24.32C53.739 24.2267 53.7056 24.12 53.7056 24C53.7056 23.8 53.779 23.5533 53.9256 23.26C54.0856 22.9667 54.3256 22.68 54.6456 22.4C54.9656 22.12 55.3723 21.8867 55.8656 21.7C56.3723 21.5 56.9856 21.4 57.7056 21.4C58.5056 21.4 59.179 21.5067 59.7256 21.72C60.2723 21.92 60.699 22.1933 61.0056 22.54C61.3256 22.8867 61.5523 23.28 61.6856 23.72C61.8323 24.16 61.9056 24.6067 61.9056 25.06V31.54C61.9056 31.6733 61.859 31.7867 61.7656 31.88C61.6856 31.96 61.579 32 61.4456 32H60.5256C60.379 32 60.2656 31.96 60.1856 31.88C60.1056 31.7867 60.0656 31.6733 60.0656 31.54V30.68C59.8923 30.92 59.659 31.16 59.3656 31.4C59.0723 31.6267 58.7056 31.82 58.2656 31.98C57.8256 32.1267 57.2856 32.2 56.6456 32.2ZM57.0656 30.7C57.6123 30.7 58.1123 30.5867 58.5656 30.36C59.019 30.12 59.3723 29.7533 59.6256 29.26C59.8923 28.7667 60.0256 28.1467 60.0256 27.4V26.84L57.7056 27.18C56.759 27.3133 56.0456 27.54 55.5656 27.86C55.0856 28.1667 54.8456 28.56 54.8456 29.04C54.8456 29.4133 54.9523 29.7267 55.1656 29.98C55.3923 30.22 55.6723 30.4 56.0056 30.52C56.3523 30.64 56.7056 30.7 57.0656 30.7ZM65.2408 32C65.1074 32 64.9941 31.96 64.9008 31.88C64.8208 31.7867 64.7808 31.6733 64.7808 31.54V22.06C64.7808 21.9267 64.8208 21.82 64.9008 21.74C64.9941 21.6467 65.1074 21.6 65.2408 21.6H66.2008C66.3341 21.6 66.4408 21.6467 66.5208 21.74C66.6008 21.82 66.6408 21.9267 66.6408 22.06V31.54C66.6408 31.6733 66.6008 31.7867 66.5208 31.88C66.4408 31.96 66.3341 32 66.2008 32H65.2408ZM65.0808 19.66C64.9474 19.66 64.8341 19.62 64.7408 19.54C64.6608 19.4467 64.6208 19.3333 64.6208 19.2V18.12C64.6208 17.9867 64.6608 17.88 64.7408 17.8C64.8341 17.7067 64.9474 17.66 65.0808 17.66H66.3408C66.4741 17.66 66.5808 17.7067 66.6608 17.8C66.7541 17.88 66.8008 17.9867 66.8008 18.12V19.2C66.8008 19.3333 66.7541 19.4467 66.6608 19.54C66.5808 19.62 66.4741 19.66 66.3408 19.66H65.0808ZM70.1045 32C69.9712 32 69.8579 31.96 69.7645 31.88C69.6845 31.7867 69.6445 31.6733 69.6445 31.54V18.26C69.6445 18.1267 69.6845 18.02 69.7645 17.94C69.8579 17.8467 69.9712 17.8 70.1045 17.8H71.0445C71.1912 17.8 71.3045 17.8467 71.3845 17.94C71.4645 18.02 71.5045 18.1267 71.5045 18.26V31.54C71.5045 31.6733 71.4645 31.7867 71.3845 31.88C71.3045 31.96 71.1912 32 71.0445 32H70.1045Z" fill="#C67DC7"/>
</svg>
