<svg width="565" height="50" viewBox="0 0 565 50" fill="none" xmlns="http://www.w3.org/2000/svg">
<path d="M5 1H560C562.209 1 564 2.79086 564 5V45C564 47.2091 562.209 49 560 49H5C2.79086 49 1 47.2091 1 45V5C1 2.79086 2.79086 1 5 1Z" stroke="#692165" stroke-width="2"/>
<path d="M17.2 32C17.0533 32 16.94 31.96 16.86 31.88C16.78 31.7867 16.74 31.6733 16.74 31.54V18.48C16.74 18.3333 16.78 18.22 16.86 18.14C16.94 18.0467 17.0533 18 17.2 18H22.28C23.2667 18 24.12 18.16 24.84 18.48C25.5733 18.8 26.14 19.28 26.54 19.92C26.94 20.5467 27.14 21.3333 27.14 22.28C27.14 23.2267 26.94 24.0133 26.54 24.64C26.14 25.2667 25.5733 25.74 24.84 26.06C24.12 26.38 23.2667 26.54 22.28 26.54H18.74V31.54C18.74 31.6733 18.6933 31.7867 18.6 31.88C18.52 31.96 18.4067 32 18.26 32H17.2ZM18.72 24.86H22.18C23.1667 24.86 23.9067 24.64 24.4 24.2C24.8933 23.76 25.14 23.12 25.14 22.28C25.14 21.4533 24.9 20.8133 24.42 20.36C23.94 19.9067 23.1933 19.68 22.18 19.68H18.72V24.86ZM32.0167 32.2C31.3501 32.2 30.7434 32.0667 30.1967 31.8C29.6501 31.5333 29.2101 31.1733 28.8767 30.72C28.5434 30.2667 28.3767 29.7533 28.3767 29.18C28.3767 28.26 28.7501 27.5267 29.4967 26.98C30.2434 26.4333 31.2167 26.0733 32.4167 25.9L35.3967 25.48V24.9C35.3967 24.26 35.2101 23.76 34.8367 23.4C34.4767 23.04 33.8834 22.86 33.0567 22.86C32.4567 22.86 31.9701 22.98 31.5967 23.22C31.2367 23.46 30.9834 23.7667 30.8367 24.14C30.7567 24.34 30.6167 24.44 30.4167 24.44H29.5167C29.3701 24.44 29.2567 24.4 29.1767 24.32C29.1101 24.2267 29.0767 24.12 29.0767 24C29.0767 23.8 29.1501 23.5533 29.2967 23.26C29.4567 22.9667 29.6967 22.68 30.0167 22.4C30.3367 22.12 30.7434 21.8867 31.2367 21.7C31.7434 21.5 32.3567 21.4 33.0767 21.4C33.8767 21.4 34.5501 21.5067 35.0967 21.72C35.6434 21.92 36.0701 22.1933 36.3767 22.54C36.6967 22.8867 36.9234 23.28 37.0567 23.72C37.2034 24.16 37.2767 24.6067 37.2767 25.06V31.54C37.2767 31.6733 37.2301 31.7867 37.1367 31.88C37.0567 31.96 36.9501 32 36.8167 32H35.8967C35.7501 32 35.6367 31.96 35.5567 31.88C35.4767 31.7867 35.4367 31.6733 35.4367 31.54V30.68C35.2634 30.92 35.0301 31.16 34.7367 31.4C34.4434 31.6267 34.0767 31.82 33.6367 31.98C33.1967 32.1267 32.6567 32.2 32.0167 32.2ZM32.4367 30.7C32.9834 30.7 33.4834 30.5867 33.9367 30.36C34.3901 30.12 34.7434 29.7533 34.9967 29.26C35.2634 28.7667 35.3967 28.1467 35.3967 27.4V26.84L33.0767 27.18C32.1301 27.3133 31.4167 27.54 30.9367 27.86C30.4567 28.1667 30.2167 28.56 30.2167 29.04C30.2167 29.4133 30.3234 29.7267 30.5367 29.98C30.7634 30.22 31.0434 30.4 31.3767 30.52C31.7234 30.64 32.0767 30.7 32.4367 30.7ZM43.7519 32.2C43.0052 32.2 42.3652 32.1067 41.8319 31.92C41.2985 31.7333 40.8652 31.5067 40.5319 31.24C40.1985 30.9733 39.9452 30.7067 39.7719 30.44C39.6119 30.1733 39.5252 29.96 39.5119 29.8C39.4985 29.6533 39.5452 29.54 39.6519 29.46C39.7585 29.38 39.8652 29.34 39.9719 29.34H40.8519C40.9319 29.34 40.9919 29.3533 41.0319 29.38C41.0852 29.3933 41.1519 29.4467 41.2319 29.54C41.4052 29.7267 41.5985 29.9133 41.8119 30.1C42.0252 30.2867 42.2852 30.44 42.5919 30.56C42.9119 30.68 43.3052 30.74 43.7719 30.74C44.4519 30.74 45.0119 30.6133 45.4519 30.36C45.8919 30.0933 46.1119 29.7067 46.1119 29.2C46.1119 28.8667 46.0185 28.6 45.8319 28.4C45.6585 28.2 45.3385 28.02 44.8719 27.86C44.4185 27.7 43.7919 27.5333 42.9919 27.36C42.1919 27.1733 41.5585 26.9467 41.0919 26.68C40.6252 26.4 40.2919 26.0733 40.0919 25.7C39.8919 25.3133 39.7919 24.88 39.7919 24.4C39.7919 23.9067 39.9385 23.4333 40.2319 22.98C40.5252 22.5133 40.9519 22.1333 41.5119 21.84C42.0852 21.5467 42.7985 21.4 43.6519 21.4C44.3452 21.4 44.9385 21.4867 45.4319 21.66C45.9252 21.8333 46.3319 22.0533 46.6519 22.32C46.9719 22.5733 47.2119 22.8267 47.3719 23.08C47.5319 23.3333 47.6185 23.5467 47.6319 23.72C47.6452 23.8533 47.6052 23.9667 47.5119 24.06C47.4185 24.14 47.3119 24.18 47.1919 24.18H46.3519C46.2585 24.18 46.1785 24.16 46.1119 24.12C46.0585 24.08 46.0052 24.0333 45.9519 23.98C45.8185 23.8067 45.6585 23.6333 45.4719 23.46C45.2985 23.2867 45.0652 23.1467 44.7719 23.04C44.4919 22.92 44.1185 22.86 43.6519 22.86C42.9852 22.86 42.4852 23 42.1519 23.28C41.8185 23.56 41.6519 23.9133 41.6519 24.34C41.6519 24.5933 41.7252 24.82 41.8719 25.02C42.0185 25.22 42.2985 25.4 42.7119 25.56C43.1252 25.72 43.7385 25.8933 44.5519 26.08C45.4319 26.2533 46.1252 26.4867 46.6319 26.78C47.1385 27.0733 47.4985 27.4133 47.7119 27.8C47.9252 28.1867 48.0319 28.6333 48.0319 29.14C48.0319 29.7 47.8652 30.2133 47.5319 30.68C47.2119 31.1467 46.7319 31.52 46.0919 31.8C45.4652 32.0667 44.6852 32.2 43.7519 32.2ZM53.9472 32.2C53.2005 32.2 52.5605 32.1067 52.0272 31.92C51.4939 31.7333 51.0605 31.5067 50.7272 31.24C50.3939 30.9733 50.1405 30.7067 49.9672 30.44C49.8072 30.1733 49.7205 29.96 49.7072 29.8C49.6939 29.6533 49.7405 29.54 49.8472 29.46C49.9539 29.38 50.0605 29.34 50.1672 29.34H51.0472C51.1272 29.34 51.1872 29.3533 51.2272 29.38C51.2805 29.3933 51.3472 29.4467 51.4272 29.54C51.6005 29.7267 51.7939 29.9133 52.0072 30.1C52.2205 30.2867 52.4805 30.44 52.7872 30.56C53.1072 30.68 53.5005 30.74 53.9672 30.74C54.6472 30.74 55.2072 30.6133 55.6472 30.36C56.0872 30.0933 56.3072 29.7067 56.3072 29.2C56.3072 28.8667 56.2139 28.6 56.0272 28.4C55.8539 28.2 55.5339 28.02 55.0672 27.86C54.6139 27.7 53.9872 27.5333 53.1872 27.36C52.3872 27.1733 51.7539 26.9467 51.2872 26.68C50.8205 26.4 50.4872 26.0733 50.2872 25.7C50.0872 25.3133 49.9872 24.88 49.9872 24.4C49.9872 23.9067 50.1339 23.4333 50.4272 22.98C50.7205 22.5133 51.1472 22.1333 51.7072 21.84C52.2805 21.5467 52.9939 21.4 53.8472 21.4C54.5405 21.4 55.1339 21.4867 55.6272 21.66C56.1205 21.8333 56.5272 22.0533 56.8472 22.32C57.1672 22.5733 57.4072 22.8267 57.5672 23.08C57.7272 23.3333 57.8139 23.5467 57.8272 23.72C57.8405 23.8533 57.8005 23.9667 57.7072 24.06C57.6139 24.14 57.5072 24.18 57.3872 24.18H56.5472C56.4539 24.18 56.3739 24.16 56.3072 24.12C56.2539 24.08 56.2005 24.0333 56.1472 23.98C56.0139 23.8067 55.8539 23.6333 55.6672 23.46C55.4939 23.2867 55.2605 23.1467 54.9672 23.04C54.6872 22.92 54.3139 22.86 53.8472 22.86C53.1805 22.86 52.6805 23 52.3472 23.28C52.0139 23.56 51.8472 23.9133 51.8472 24.34C51.8472 24.5933 51.9205 24.82 52.0672 25.02C52.2139 25.22 52.4939 25.4 52.9072 25.56C53.3205 25.72 53.9339 25.8933 54.7472 26.08C55.6272 26.2533 56.3205 26.4867 56.8272 26.78C57.3339 27.0733 57.6939 27.4133 57.9072 27.8C58.1205 28.1867 58.2272 28.6333 58.2272 29.14C58.2272 29.7 58.0605 30.2133 57.7272 30.68C57.4072 31.1467 56.9272 31.52 56.2872 31.8C55.6605 32.0667 54.8805 32.2 53.9472 32.2ZM63.0291 32C62.8557 32 62.7224 31.96 62.6291 31.88C62.5357 31.7867 62.4557 31.66 62.3891 31.5L59.5491 22.22C59.5224 22.1533 59.5091 22.0867 59.5091 22.02C59.5091 21.9 59.5491 21.8 59.6291 21.72C59.7224 21.64 59.8224 21.6 59.9291 21.6H60.8091C60.9557 21.6 61.0691 21.64 61.1491 21.72C61.2291 21.8 61.2824 21.8733 61.3091 21.94L63.5291 29.48L65.9091 22.02C65.9357 21.9267 65.9891 21.8333 66.0691 21.74C66.1624 21.6467 66.2957 21.6 66.4691 21.6H67.1491C67.3224 21.6 67.4557 21.6467 67.5491 21.74C67.6424 21.8333 67.6957 21.9267 67.7091 22.02L70.0891 29.48L72.3091 21.94C72.3224 21.8733 72.3691 21.8 72.4491 21.72C72.5291 21.64 72.6424 21.6 72.7891 21.6H73.6691C73.7891 21.6 73.8891 21.64 73.9691 21.72C74.0491 21.8 74.0891 21.9 74.0891 22.02C74.0891 22.0867 74.0757 22.1533 74.0491 22.22L71.2091 31.5C71.1691 31.66 71.0957 31.7867 70.9891 31.88C70.8957 31.96 70.7557 32 70.5691 32H69.7891C69.6157 32 69.4691 31.96 69.3491 31.88C69.2424 31.7867 69.1691 31.66 69.1291 31.5L66.8091 24.34L64.4891 31.5C64.4357 31.66 64.3557 31.7867 64.2491 31.88C64.1424 31.96 63.9957 32 63.8091 32H63.0291ZM80.2908 32.2C79.2774 32.2 78.4308 32.0067 77.7508 31.62C77.0708 31.2333 76.5508 30.7 76.1908 30.02C75.8308 29.3267 75.6308 28.54 75.5908 27.66C75.5774 27.4333 75.5708 27.1467 75.5708 26.8C75.5708 26.44 75.5774 26.1533 75.5908 25.94C75.6308 25.0467 75.8308 24.26 76.1908 23.58C76.5641 22.9 77.0908 22.3667 77.7708 21.98C78.4508 21.5933 79.2908 21.4 80.2908 21.4C81.2908 21.4 82.1308 21.5933 82.8108 21.98C83.4908 22.3667 84.0108 22.9 84.3708 23.58C84.7441 24.26 84.9508 25.0467 84.9908 25.94C85.0041 26.1533 85.0108 26.44 85.0108 26.8C85.0108 27.1467 85.0041 27.4333 84.9908 27.66C84.9508 28.54 84.7508 29.3267 84.3908 30.02C84.0308 30.7 83.5108 31.2333 82.8308 31.62C82.1508 32.0067 81.3041 32.2 80.2908 32.2ZM80.2908 30.66C81.1174 30.66 81.7774 30.4 82.2708 29.88C82.7641 29.3467 83.0308 28.5733 83.0708 27.56C83.0841 27.36 83.0908 27.1067 83.0908 26.8C83.0908 26.4933 83.0841 26.24 83.0708 26.04C83.0308 25.0267 82.7641 24.26 82.2708 23.74C81.7774 23.2067 81.1174 22.94 80.2908 22.94C79.4641 22.94 78.7974 23.2067 78.2908 23.74C77.7974 24.26 77.5374 25.0267 77.5108 26.04C77.4974 26.24 77.4908 26.4933 77.4908 26.8C77.4908 27.1067 77.4974 27.36 77.5108 27.56C77.5374 28.5733 77.7974 29.3467 78.2908 29.88C78.7974 30.4 79.4641 30.66 80.2908 30.66ZM87.9752 32C87.8418 32 87.7285 31.96 87.6352 31.88C87.5552 31.7867 87.5152 31.6733 87.5152 31.54V22.08C87.5152 21.9467 87.5552 21.8333 87.6352 21.74C87.7285 21.6467 87.8418 21.6 87.9752 21.6H88.8952C89.0285 21.6 89.1418 21.6467 89.2352 21.74C89.3285 21.8333 89.3752 21.9467 89.3752 22.08V22.96C89.6418 22.5067 90.0085 22.1667 90.4752 21.94C90.9418 21.7133 91.5018 21.6 92.1552 21.6H92.9552C93.0885 21.6 93.1952 21.6467 93.2752 21.74C93.3552 21.82 93.3952 21.9267 93.3952 22.06V22.88C93.3952 23.0133 93.3552 23.12 93.2752 23.2C93.1952 23.28 93.0885 23.32 92.9552 23.32H91.7552C91.0352 23.32 90.4685 23.5333 90.0552 23.96C89.6418 24.3733 89.4352 24.94 89.4352 25.66V31.54C89.4352 31.6733 89.3885 31.7867 89.2952 31.88C89.2018 31.96 89.0885 32 88.9552 32H87.9752ZM98.698 32.2C97.9646 32.2 97.3313 32.0733 96.798 31.82C96.2646 31.5533 95.8246 31.2 95.478 30.76C95.1446 30.3067 94.8913 29.7933 94.718 29.22C94.558 28.6467 94.4646 28.04 94.438 27.4C94.4246 27.1867 94.418 26.9867 94.418 26.8C94.418 26.6133 94.4246 26.4133 94.438 26.2C94.4646 25.5733 94.558 24.9733 94.718 24.4C94.8913 23.8267 95.1446 23.3133 95.478 22.86C95.8246 22.4067 96.2646 22.0533 96.798 21.8C97.3313 21.5333 97.9646 21.4 98.698 21.4C99.4846 21.4 100.138 21.54 100.658 21.82C101.178 22.1 101.605 22.4467 101.938 22.86V18.26C101.938 18.1267 101.978 18.02 102.058 17.94C102.151 17.8467 102.265 17.8 102.398 17.8H103.358C103.491 17.8 103.598 17.8467 103.678 17.94C103.771 18.02 103.818 18.1267 103.818 18.26V31.54C103.818 31.6733 103.771 31.7867 103.678 31.88C103.598 31.96 103.491 32 103.358 32H102.458C102.311 32 102.198 31.96 102.118 31.88C102.038 31.7867 101.998 31.6733 101.998 31.54V30.7C101.665 31.1267 101.231 31.4867 100.698 31.78C100.165 32.06 99.498 32.2 98.698 32.2ZM99.118 30.58C99.7846 30.58 100.318 30.4267 100.718 30.12C101.118 29.8133 101.418 29.4267 101.618 28.96C101.818 28.48 101.925 27.9933 101.938 27.5C101.951 27.2867 101.958 27.0333 101.958 26.74C101.958 26.4333 101.951 26.1733 101.938 25.96C101.925 25.4933 101.811 25.0333 101.598 24.58C101.398 24.1267 101.091 23.7533 100.678 23.46C100.278 23.1667 99.758 23.02 99.118 23.02C98.438 23.02 97.898 23.1733 97.498 23.48C97.098 23.7733 96.8113 24.1667 96.638 24.66C96.4646 25.14 96.3646 25.66 96.338 26.22C96.3246 26.6067 96.3246 26.9933 96.338 27.38C96.3646 27.94 96.4646 28.4667 96.638 28.96C96.8113 29.44 97.098 29.8333 97.498 30.14C97.898 30.4333 98.438 30.58 99.118 30.58Z" fill="#C67DC7"/>
</svg>
