<svg width="565" height="108" viewBox="0 0 565 108" fill="none" xmlns="http://www.w3.org/2000/svg">
<path d="M0 5C0 2.23858 2.23858 0 5 0H560C562.761 0 565 2.23858 565 5V46C565 48.7614 562.761 51 560 51H5C2.23858 51 0 48.7614 0 46V5Z" fill="white"/>
<path d="M182.2 32C182.053 32 181.94 31.96 181.86 31.88C181.78 31.7867 181.74 31.6733 181.74 31.54V18.48C181.74 18.3333 181.78 18.22 181.86 18.14C181.94 18.0467 182.053 18 182.2 18H187.68C188.68 18 189.493 18.1667 190.12 18.5C190.76 18.82 191.227 19.26 191.52 19.82C191.827 20.38 191.98 21.0067 191.98 21.7C191.98 22.2467 191.887 22.72 191.7 23.12C191.527 23.5067 191.307 23.8267 191.04 24.08C190.773 24.32 190.513 24.5067 190.26 24.64C190.78 24.8933 191.24 25.3067 191.64 25.88C192.053 26.4533 192.26 27.1467 192.26 27.96C192.26 28.6933 192.093 29.3667 191.76 29.98C191.427 30.5933 190.927 31.0867 190.26 31.46C189.607 31.82 188.793 32 187.82 32H182.2ZM183.7 30.38H187.56C188.427 30.38 189.093 30.1467 189.56 29.68C190.027 29.2133 190.26 28.64 190.26 27.96C190.26 27.2533 190.027 26.6733 189.56 26.22C189.093 25.7533 188.427 25.52 187.56 25.52H183.7V30.38ZM183.7 23.92H187.38C188.233 23.92 188.88 23.7267 189.32 23.34C189.76 22.94 189.98 22.4 189.98 21.72C189.98 21.04 189.76 20.52 189.32 20.16C188.88 19.8 188.233 19.62 187.38 19.62H183.7V23.92ZM194.359 32C194.253 32 194.153 31.96 194.059 31.88C193.979 31.8 193.939 31.7 193.939 31.58C193.939 31.54 193.946 31.4933 193.959 31.44C193.986 31.3733 194.026 31.3 194.079 31.22L197.559 26.68L194.299 22.38C194.246 22.3 194.206 22.2333 194.179 22.18C194.166 22.1267 194.159 22.0733 194.159 22.02C194.159 21.9 194.199 21.8 194.279 21.72C194.359 21.64 194.459 21.6 194.579 21.6H195.599C195.746 21.6 195.853 21.64 195.919 21.72C195.999 21.7867 196.066 21.8533 196.119 21.92L198.779 25.38L201.439 21.94C201.493 21.8733 201.553 21.8 201.619 21.72C201.699 21.64 201.813 21.6 201.959 21.6H202.939C203.059 21.6 203.159 21.64 203.239 21.72C203.319 21.8 203.359 21.9 203.359 22.02C203.359 22.0733 203.346 22.1267 203.319 22.18C203.306 22.2333 203.273 22.3 203.219 22.38L199.919 26.72L203.399 31.22C203.453 31.3 203.486 31.3667 203.499 31.42C203.526 31.4733 203.539 31.5267 203.539 31.58C203.539 31.7 203.499 31.8 203.419 31.88C203.339 31.96 203.239 32 203.119 32H202.059C201.926 32 201.819 31.9667 201.739 31.9C201.659 31.8333 201.593 31.7667 201.539 31.7L198.719 28.04L195.899 31.7C195.846 31.7533 195.779 31.82 195.699 31.9C195.633 31.9667 195.526 32 195.379 32H194.359ZM209.881 32.2C208.867 32.2 208.021 32.0067 207.341 31.62C206.661 31.2333 206.141 30.7 205.781 30.02C205.421 29.3267 205.221 28.54 205.181 27.66C205.167 27.4333 205.161 27.1467 205.161 26.8C205.161 26.44 205.167 26.1533 205.181 25.94C205.221 25.0467 205.421 24.26 205.781 23.58C206.154 22.9 206.681 22.3667 207.361 21.98C208.041 21.5933 208.881 21.4 209.881 21.4C210.881 21.4 211.721 21.5933 212.401 21.98C213.081 22.3667 213.601 22.9 213.961 23.58C214.334 24.26 214.541 25.0467 214.581 25.94C214.594 26.1533 214.601 26.44 214.601 26.8C214.601 27.1467 214.594 27.4333 214.581 27.66C214.541 28.54 214.341 29.3267 213.981 30.02C213.621 30.7 213.101 31.2333 212.421 31.62C211.741 32.0067 210.894 32.2 209.881 32.2ZM209.881 30.66C210.707 30.66 211.367 30.4 211.861 29.88C212.354 29.3467 212.621 28.5733 212.661 27.56C212.674 27.36 212.681 27.1067 212.681 26.8C212.681 26.4933 212.674 26.24 212.661 26.04C212.621 25.0267 212.354 24.26 211.861 23.74C211.367 23.2067 210.707 22.94 209.881 22.94C209.054 22.94 208.387 23.2067 207.881 23.74C207.387 24.26 207.127 25.0267 207.101 26.04C207.087 26.24 207.081 26.4933 207.081 26.8C207.081 27.1067 207.087 27.36 207.101 27.56C207.127 28.5733 207.387 29.3467 207.881 29.88C208.387 30.4 209.054 30.66 209.881 30.66ZM216.505 34.2C216.372 34.2 216.258 34.1533 216.165 34.06C216.085 33.98 216.045 33.8733 216.045 33.74V30.86C216.045 30.7267 216.085 30.62 216.165 30.54C216.258 30.4467 216.372 30.4 216.505 30.4H216.605C216.965 30.3867 217.272 30.1867 217.525 29.8C217.778 29.4 217.972 28.78 218.105 27.94C218.238 27.0867 218.305 25.98 218.305 24.62V22.06C218.305 21.9267 218.345 21.82 218.425 21.74C218.518 21.6467 218.632 21.6 218.765 21.6H225.145C225.278 21.6 225.385 21.6467 225.465 21.74C225.558 21.82 225.605 21.9267 225.605 22.06V30.36H226.545C226.692 30.36 226.805 30.4067 226.885 30.5C226.965 30.58 227.005 30.6867 227.005 30.82V33.74C227.005 33.8733 226.965 33.98 226.885 34.06C226.805 34.1533 226.692 34.2 226.545 34.2H225.605C225.472 34.2 225.358 34.1533 225.265 34.06C225.185 33.98 225.145 33.8733 225.145 33.74V32H217.905V33.74C217.905 33.8733 217.858 33.98 217.765 34.06C217.685 34.1533 217.578 34.2 217.445 34.2H216.505ZM218.985 30.4L223.745 30.36V23.2H220.125V24.84C220.125 26.2533 220.025 27.4133 219.825 28.32C219.625 29.2133 219.345 29.9067 218.985 30.4ZM240.56 32C240.413 32 240.3 31.96 240.22 31.88C240.14 31.7867 240.1 31.6733 240.1 31.54V27.78C239.74 28.1133 239.3 28.36 238.78 28.52C238.273 28.6667 237.693 28.74 237.04 28.74C235.866 28.74 234.953 28.48 234.3 27.96C233.66 27.44 233.34 26.6 233.34 25.44V22.06C233.34 21.9267 233.38 21.82 233.46 21.74C233.553 21.6467 233.666 21.6 233.8 21.6H234.78C234.913 21.6 235.02 21.6467 235.1 21.74C235.193 21.82 235.24 21.9267 235.24 22.06V25.32C235.24 25.92 235.413 26.36 235.76 26.64C236.12 26.92 236.666 27.06 237.4 27.06C238.213 27.06 238.866 26.96 239.36 26.76C239.853 26.5467 240.1 26.1733 240.1 25.64V22.06C240.1 21.9267 240.14 21.82 240.22 21.74C240.3 21.6467 240.413 21.6 240.56 21.6H241.56C241.693 21.6 241.8 21.6467 241.88 21.74C241.973 21.82 242.02 21.9267 242.02 22.06V31.54C242.02 31.6733 241.973 31.7867 241.88 31.88C241.8 31.96 241.693 32 241.56 32H240.56ZM249.136 32.2C247.762 32.2 246.669 31.78 245.856 30.94C245.042 30.0867 244.596 28.9267 244.516 27.46C244.502 27.2867 244.496 27.0667 244.496 26.8C244.496 26.52 244.502 26.2933 244.516 26.12C244.569 25.1733 244.789 24.3467 245.176 23.64C245.562 22.92 246.089 22.3667 246.756 21.98C247.436 21.5933 248.229 21.4 249.136 21.4C250.149 21.4 250.996 21.6133 251.676 22.04C252.369 22.4667 252.896 23.0733 253.256 23.86C253.616 24.6467 253.796 25.5667 253.796 26.62V26.96C253.796 27.1067 253.749 27.22 253.656 27.3C253.576 27.38 253.469 27.42 253.336 27.42H246.416C246.416 27.4333 246.416 27.46 246.416 27.5C246.416 27.54 246.416 27.5733 246.416 27.6C246.442 28.1467 246.562 28.66 246.776 29.14C246.989 29.6067 247.296 29.9867 247.696 30.28C248.096 30.5733 248.576 30.72 249.136 30.72C249.616 30.72 250.016 30.6467 250.336 30.5C250.656 30.3533 250.916 30.1933 251.116 30.02C251.316 29.8333 251.449 29.6933 251.516 29.6C251.636 29.4267 251.729 29.3267 251.796 29.3C251.862 29.26 251.969 29.24 252.116 29.24H253.076C253.209 29.24 253.316 29.28 253.396 29.36C253.489 29.4267 253.529 29.5267 253.516 29.66C253.502 29.86 253.396 30.1067 253.196 30.4C252.996 30.68 252.709 30.96 252.336 31.24C251.962 31.52 251.509 31.7533 250.976 31.94C250.442 32.1133 249.829 32.2 249.136 32.2ZM246.416 26.04H251.896V25.98C251.896 25.38 251.782 24.8467 251.556 24.38C251.342 23.9133 251.029 23.5467 250.616 23.28C250.202 23 249.709 22.86 249.136 22.86C248.562 22.86 248.069 23 247.656 23.28C247.256 23.5467 246.949 23.9133 246.736 24.38C246.522 24.8467 246.416 25.38 246.416 25.98V26.04ZM256.667 35.8C256.534 35.8 256.42 35.7533 256.327 35.66C256.247 35.58 256.207 35.4733 256.207 35.34V22.06C256.207 21.9267 256.247 21.82 256.327 21.74C256.42 21.6467 256.534 21.6 256.667 21.6H257.587C257.72 21.6 257.827 21.6467 257.907 21.74C258 21.82 258.047 21.9267 258.047 22.06V22.94C258.367 22.5 258.794 22.1333 259.327 21.84C259.86 21.5467 260.527 21.4 261.327 21.4C262.074 21.4 262.707 21.5267 263.227 21.78C263.76 22.0333 264.194 22.38 264.527 22.82C264.874 23.26 265.134 23.76 265.307 24.32C265.48 24.88 265.574 25.48 265.587 26.12C265.6 26.3333 265.607 26.56 265.607 26.8C265.607 27.04 265.6 27.2667 265.587 27.48C265.574 28.1067 265.48 28.7067 265.307 29.28C265.134 29.84 264.874 30.34 264.527 30.78C264.194 31.2067 263.76 31.5533 263.227 31.82C262.707 32.0733 262.074 32.2 261.327 32.2C260.554 32.2 259.9 32.06 259.367 31.78C258.847 31.4867 258.42 31.1267 258.087 30.7V35.34C258.087 35.4733 258.047 35.58 257.967 35.66C257.887 35.7533 257.774 35.8 257.627 35.8H256.667ZM260.907 30.58C261.6 30.58 262.14 30.4333 262.527 30.14C262.927 29.8333 263.214 29.44 263.387 28.96C263.56 28.4667 263.66 27.94 263.687 27.38C263.7 26.9933 263.7 26.6067 263.687 26.22C263.66 25.66 263.56 25.14 263.387 24.66C263.214 24.1667 262.927 23.7733 262.527 23.48C262.14 23.1733 261.6 23.02 260.907 23.02C260.254 23.02 259.72 23.1733 259.307 23.48C258.907 23.7867 258.607 24.18 258.407 24.66C258.22 25.1267 258.114 25.6067 258.087 26.1C258.074 26.3133 258.067 26.5667 258.067 26.86C258.067 27.1533 258.074 27.4133 258.087 27.64C258.1 28.1067 258.207 28.5667 258.407 29.02C258.62 29.4733 258.934 29.8467 259.347 30.14C259.76 30.4333 260.28 30.58 260.907 30.58ZM272.241 32.2C270.868 32.2 269.774 31.78 268.961 30.94C268.148 30.0867 267.701 28.9267 267.621 27.46C267.608 27.2867 267.601 27.0667 267.601 26.8C267.601 26.52 267.608 26.2933 267.621 26.12C267.674 25.1733 267.894 24.3467 268.281 23.64C268.668 22.92 269.194 22.3667 269.861 21.98C270.541 21.5933 271.334 21.4 272.241 21.4C273.254 21.4 274.101 21.6133 274.781 22.04C275.474 22.4667 276.001 23.0733 276.361 23.86C276.721 24.6467 276.901 25.5667 276.901 26.62V26.96C276.901 27.1067 276.854 27.22 276.761 27.3C276.681 27.38 276.574 27.42 276.441 27.42H269.521C269.521 27.4333 269.521 27.46 269.521 27.5C269.521 27.54 269.521 27.5733 269.521 27.6C269.548 28.1467 269.668 28.66 269.881 29.14C270.094 29.6067 270.401 29.9867 270.801 30.28C271.201 30.5733 271.681 30.72 272.241 30.72C272.721 30.72 273.121 30.6467 273.441 30.5C273.761 30.3533 274.021 30.1933 274.221 30.02C274.421 29.8333 274.554 29.6933 274.621 29.6C274.741 29.4267 274.834 29.3267 274.901 29.3C274.968 29.26 275.074 29.24 275.221 29.24H276.181C276.314 29.24 276.421 29.28 276.501 29.36C276.594 29.4267 276.634 29.5267 276.621 29.66C276.608 29.86 276.501 30.1067 276.301 30.4C276.101 30.68 275.814 30.96 275.441 31.24C275.068 31.52 274.614 31.7533 274.081 31.94C273.548 32.1133 272.934 32.2 272.241 32.2ZM269.521 26.04H275.001V25.98C275.001 25.38 274.888 24.8467 274.661 24.38C274.448 23.9133 274.134 23.5467 273.721 23.28C273.308 23 272.814 22.86 272.241 22.86C271.668 22.86 271.174 23 270.761 23.28C270.361 23.5467 270.054 23.9133 269.841 24.38C269.628 24.8467 269.521 25.38 269.521 25.98V26.04ZM282.913 32.2C282.126 32.2 281.459 32.1067 280.913 31.92C280.379 31.72 279.946 31.4733 279.613 31.18C279.293 30.8733 279.059 30.56 278.913 30.24C278.766 29.9067 278.686 29.6 278.673 29.32C278.673 29.2 278.713 29.1067 278.793 29.04C278.873 28.96 278.966 28.92 279.073 28.92H280.013C280.133 28.92 280.233 28.9533 280.312 29.02C280.393 29.0733 280.453 29.1733 280.493 29.32C280.653 29.8267 280.959 30.18 281.413 30.38C281.866 30.58 282.419 30.68 283.073 30.68C283.499 30.68 283.893 30.6267 284.253 30.52C284.613 30.4 284.893 30.2133 285.093 29.96C285.306 29.7067 285.413 29.3933 285.413 29.02C285.413 28.4733 285.253 28.06 284.933 27.78C284.626 27.5 284.146 27.36 283.493 27.36H282.393C282.259 27.36 282.153 27.32 282.073 27.24C281.993 27.16 281.953 27.0533 281.953 26.92V26.38C281.953 26.26 281.993 26.16 282.073 26.08C282.153 25.9867 282.259 25.94 282.393 25.94H283.373C283.919 25.94 284.339 25.8333 284.633 25.62C284.926 25.4067 285.073 25.0667 285.073 24.6C285.073 24.32 285.006 24.0533 284.873 23.8C284.739 23.5467 284.513 23.34 284.193 23.18C283.886 23.0067 283.459 22.92 282.913 22.92C282.139 22.92 281.593 23.0533 281.273 23.32C280.966 23.5733 280.746 23.9533 280.613 24.46C280.559 24.6067 280.493 24.7067 280.413 24.76C280.346 24.8133 280.246 24.84 280.113 24.84H279.213C279.093 24.84 278.993 24.8067 278.913 24.74C278.833 24.6733 278.793 24.58 278.793 24.46C278.806 24.06 278.893 23.68 279.053 23.32C279.226 22.96 279.479 22.6333 279.813 22.34C280.159 22.0467 280.586 21.82 281.093 21.66C281.613 21.4867 282.219 21.4 282.913 21.4C283.913 21.4 284.699 21.5533 285.273 21.86C285.859 22.1667 286.273 22.5467 286.513 23C286.766 23.44 286.893 23.88 286.893 24.32C286.893 24.84 286.806 25.2733 286.633 25.62C286.473 25.9667 286.153 26.26 285.673 26.5C286.273 26.7267 286.686 27.0667 286.913 27.52C287.139 27.9733 287.259 28.5 287.273 29.1C287.286 29.7933 287.099 30.3667 286.713 30.82C286.339 31.2733 285.826 31.62 285.173 31.86C284.519 32.0867 283.766 32.2 282.913 32.2ZM297.329 32.2C296.663 32.2 296.056 32.0667 295.509 31.8C294.963 31.5333 294.523 31.1733 294.189 30.72C293.856 30.2667 293.689 29.7533 293.689 29.18C293.689 28.26 294.063 27.5267 294.809 26.98C295.556 26.4333 296.529 26.0733 297.729 25.9L300.709 25.48V24.9C300.709 24.26 300.523 23.76 300.149 23.4C299.789 23.04 299.196 22.86 298.369 22.86C297.769 22.86 297.283 22.98 296.909 23.22C296.549 23.46 296.296 23.7667 296.149 24.14C296.069 24.34 295.929 24.44 295.729 24.44H294.829C294.683 24.44 294.569 24.4 294.489 24.32C294.423 24.2267 294.389 24.12 294.389 24C294.389 23.8 294.463 23.5533 294.609 23.26C294.769 22.9667 295.009 22.68 295.329 22.4C295.649 22.12 296.056 21.8867 296.549 21.7C297.056 21.5 297.669 21.4 298.389 21.4C299.189 21.4 299.863 21.5067 300.409 21.72C300.956 21.92 301.383 22.1933 301.689 22.54C302.009 22.8867 302.236 23.28 302.369 23.72C302.516 24.16 302.589 24.6067 302.589 25.06V31.54C302.589 31.6733 302.543 31.7867 302.449 31.88C302.369 31.96 302.263 32 302.129 32H301.209C301.063 32 300.949 31.96 300.869 31.88C300.789 31.7867 300.749 31.6733 300.749 31.54V30.68C300.576 30.92 300.343 31.16 300.049 31.4C299.756 31.6267 299.389 31.82 298.949 31.98C298.509 32.1267 297.969 32.2 297.329 32.2ZM297.749 30.7C298.296 30.7 298.796 30.5867 299.249 30.36C299.703 30.12 300.056 29.7533 300.309 29.26C300.576 28.7667 300.709 28.1467 300.709 27.4V26.84L298.389 27.18C297.443 27.3133 296.729 27.54 296.249 27.86C295.769 28.1667 295.529 28.56 295.529 29.04C295.529 29.4133 295.636 29.7267 295.849 29.98C296.076 30.22 296.356 30.4 296.689 30.52C297.036 30.64 297.389 30.7 297.749 30.7ZM305.924 32C305.791 32 305.678 31.96 305.584 31.88C305.504 31.7867 305.464 31.6733 305.464 31.54V22.06C305.464 21.9267 305.504 21.82 305.584 21.74C305.678 21.6467 305.791 21.6 305.924 21.6H306.864C306.998 21.6 307.104 21.6467 307.184 21.74C307.278 21.82 307.324 21.9267 307.324 22.06V25.9H309.144L311.844 21.9C311.911 21.8067 311.984 21.7333 312.064 21.68C312.144 21.6267 312.251 21.6 312.384 21.6H313.424C313.544 21.6 313.644 21.6267 313.724 21.68C313.804 21.7333 313.844 21.8133 313.844 21.92C313.844 21.9467 313.831 21.9867 313.804 22.04C313.791 22.08 313.771 22.12 313.744 22.16L310.744 26.58L314.144 31.42C314.211 31.5 314.244 31.5867 314.244 31.68C314.244 31.7867 314.204 31.8667 314.124 31.92C314.058 31.9733 313.964 32 313.844 32H312.624C312.504 32 312.404 31.9733 312.324 31.92C312.244 31.8667 312.171 31.7933 312.104 31.7L309.164 27.52H307.324V31.54C307.324 31.6733 307.278 31.7867 307.184 31.88C307.104 31.96 306.998 32 306.864 32H305.924ZM316.647 32C316.514 32 316.4 31.96 316.307 31.88C316.227 31.7867 316.187 31.6733 316.187 31.54V22.06C316.187 21.9267 316.227 21.82 316.307 21.74C316.4 21.6467 316.514 21.6 316.647 21.6H317.587C317.72 21.6 317.827 21.6467 317.907 21.74C318 21.82 318.047 21.9267 318.047 22.06V25.9H319.867L322.567 21.9C322.634 21.8067 322.707 21.7333 322.787 21.68C322.867 21.6267 322.974 21.6 323.107 21.6H324.147C324.267 21.6 324.367 21.6267 324.447 21.68C324.527 21.7333 324.567 21.8133 324.567 21.92C324.567 21.9467 324.554 21.9867 324.527 22.04C324.514 22.08 324.494 22.12 324.467 22.16L321.467 26.58L324.867 31.42C324.934 31.5 324.967 31.5867 324.967 31.68C324.967 31.7867 324.927 31.8667 324.847 31.92C324.78 31.9733 324.687 32 324.567 32H323.347C323.227 32 323.127 31.9733 323.047 31.92C322.967 31.8667 322.894 31.7933 322.827 31.7L319.887 27.52H318.047V31.54C318.047 31.6733 318 31.7867 317.907 31.88C317.827 31.96 317.72 32 317.587 32H316.647ZM329.81 32.2C329.143 32.2 328.536 32.0667 327.99 31.8C327.443 31.5333 327.003 31.1733 326.67 30.72C326.336 30.2667 326.17 29.7533 326.17 29.18C326.17 28.26 326.543 27.5267 327.29 26.98C328.036 26.4333 329.01 26.0733 330.21 25.9L333.19 25.48V24.9C333.19 24.26 333.003 23.76 332.63 23.4C332.27 23.04 331.676 22.86 330.85 22.86C330.25 22.86 329.763 22.98 329.39 23.22C329.03 23.46 328.776 23.7667 328.63 24.14C328.55 24.34 328.41 24.44 328.21 24.44H327.31C327.163 24.44 327.05 24.4 326.97 24.32C326.903 24.2267 326.87 24.12 326.87 24C326.87 23.8 326.943 23.5533 327.09 23.26C327.25 22.9667 327.49 22.68 327.81 22.4C328.13 22.12 328.536 21.8867 329.03 21.7C329.536 21.5 330.15 21.4 330.87 21.4C331.67 21.4 332.343 21.5067 332.89 21.72C333.436 21.92 333.863 22.1933 334.17 22.54C334.49 22.8867 334.716 23.28 334.85 23.72C334.996 24.16 335.07 24.6067 335.07 25.06V31.54C335.07 31.6733 335.023 31.7867 334.93 31.88C334.85 31.96 334.743 32 334.61 32H333.69C333.543 32 333.43 31.96 333.35 31.88C333.27 31.7867 333.23 31.6733 333.23 31.54V30.68C333.056 30.92 332.823 31.16 332.53 31.4C332.236 31.6267 331.87 31.82 331.43 31.98C330.99 32.1267 330.45 32.2 329.81 32.2ZM330.23 30.7C330.776 30.7 331.276 30.5867 331.73 30.36C332.183 30.12 332.536 29.7533 332.79 29.26C333.056 28.7667 333.19 28.1467 333.19 27.4V26.84L330.87 27.18C329.923 27.3133 329.21 27.54 328.73 27.86C328.25 28.1667 328.01 28.56 328.01 29.04C328.01 29.4133 328.116 29.7267 328.33 29.98C328.556 30.22 328.836 30.4 329.17 30.52C329.516 30.64 329.87 30.7 330.23 30.7ZM338.425 35.8C338.278 35.8 338.165 35.7533 338.085 35.66C338.005 35.58 337.965 35.4733 337.965 35.34V34.66C337.965 34.5267 338.005 34.4133 338.085 34.32C338.165 34.24 338.278 34.2 338.425 34.2H338.945C339.252 34.2 339.498 34.14 339.685 34.02C339.872 33.9 340.038 33.6933 340.185 33.4C340.345 33.12 340.532 32.7333 340.745 32.24L345.085 21.94C345.125 21.8333 345.178 21.7533 345.245 21.7C345.325 21.6333 345.438 21.6 345.585 21.6H346.465C346.585 21.6 346.685 21.64 346.765 21.72C346.845 21.8 346.885 21.8933 346.885 22C346.885 22.0533 346.878 22.1067 346.865 22.16C346.852 22.2 346.825 22.2667 346.785 22.36L342.985 31.36C342.785 31.84 342.565 32.34 342.325 32.86C342.098 33.38 341.838 33.86 341.545 34.3C341.265 34.7533 340.932 35.1133 340.545 35.38C340.158 35.66 339.705 35.8 339.185 35.8H338.425ZM341.205 31.7L337.165 22.36C337.098 22.2 337.065 22.0867 337.065 22.02C337.078 21.9 337.125 21.8 337.205 21.72C337.285 21.64 337.378 21.6 337.485 21.6H338.425C338.572 21.6 338.678 21.6333 338.745 21.7C338.825 21.7667 338.885 21.8467 338.925 21.94L342.245 29.88L341.205 31.7ZM349.362 32C349.229 32 349.115 31.96 349.022 31.88C348.942 31.7867 348.902 31.6733 348.902 31.54V22.06C348.902 21.9267 348.942 21.82 349.022 21.74C349.115 21.6467 349.229 21.6 349.362 21.6H350.322C350.455 21.6 350.562 21.6467 350.642 21.74C350.722 21.82 350.762 21.9267 350.762 22.06V25.9H356.222V22.06C356.222 21.9267 356.262 21.82 356.342 21.74C356.435 21.6467 356.549 21.6 356.682 21.6H357.622C357.755 21.6 357.862 21.6467 357.942 21.74C358.035 21.82 358.082 21.9267 358.082 22.06V31.54C358.082 31.6733 358.035 31.7867 357.942 31.88C357.862 31.96 357.755 32 357.622 32H356.682C356.549 32 356.435 31.96 356.342 31.88C356.262 31.7867 356.222 31.6733 356.222 31.54V27.5H350.762V31.54C350.762 31.6733 350.722 31.7867 350.642 31.88C350.562 31.96 350.455 32 350.322 32H349.362ZM364.269 32C364.136 32 364.023 31.96 363.929 31.88C363.849 31.7867 363.809 31.6733 363.809 31.54V23.2H360.329C360.196 23.2 360.083 23.16 359.989 23.08C359.909 22.9867 359.869 22.8733 359.869 22.74V22.06C359.869 21.9267 359.909 21.82 359.989 21.74C360.083 21.6467 360.196 21.6 360.329 21.6H369.129C369.263 21.6 369.369 21.6467 369.449 21.74C369.543 21.82 369.589 21.9267 369.589 22.06V22.74C369.589 22.8733 369.543 22.9867 369.449 23.08C369.369 23.16 369.263 23.2 369.129 23.2H365.649V31.54C365.649 31.6733 365.609 31.7867 365.529 31.88C365.449 31.96 365.336 32 365.189 32H364.269ZM380.646 32C380.446 32 380.286 31.9533 380.166 31.86C380.059 31.7667 379.973 31.64 379.906 31.48L375.446 18.62C375.419 18.54 375.406 18.4667 375.406 18.4C375.406 18.2933 375.446 18.2 375.526 18.12C375.606 18.04 375.699 18 375.806 18H376.846C377.006 18 377.126 18.0467 377.206 18.14C377.299 18.22 377.353 18.2933 377.366 18.36L381.286 29.7L385.206 18.36C385.233 18.2933 385.286 18.22 385.366 18.14C385.446 18.0467 385.566 18 385.726 18H386.766C386.873 18 386.966 18.04 387.046 18.12C387.139 18.2 387.186 18.2933 387.186 18.4C387.186 18.4667 387.173 18.54 387.146 18.62L382.666 31.48C382.613 31.64 382.526 31.7667 382.406 31.86C382.299 31.9533 382.146 32 381.946 32H380.646ZM390.032 32C389.885 32 389.772 31.96 389.692 31.88C389.612 31.7867 389.572 31.6733 389.572 31.54V18.48C389.572 18.3333 389.612 18.22 389.692 18.14C389.772 18.0467 389.885 18 390.032 18H391.032C391.179 18 391.292 18.0467 391.372 18.14C391.465 18.22 391.512 18.3333 391.512 18.48V23.44L396.852 18.32C396.905 18.2667 396.992 18.2 397.112 18.12C397.245 18.04 397.419 18 397.632 18H398.712C398.819 18 398.912 18.04 398.992 18.12C399.072 18.2 399.112 18.2933 399.112 18.4C399.112 18.5067 399.085 18.5933 399.032 18.66L392.852 24.7L399.432 31.32C399.499 31.4 399.532 31.4933 399.532 31.6C399.532 31.7067 399.492 31.8 399.412 31.88C399.332 31.96 399.239 32 399.132 32H398.012C397.785 32 397.612 31.96 397.492 31.88C397.372 31.7867 397.285 31.72 397.232 31.68L391.512 26.04V31.54C391.512 31.6733 391.465 31.7867 391.372 31.88C391.292 31.96 391.179 32 391.032 32H390.032Z" fill="black"/>
<g clip-path="url(#clip0_25_17)">
<mask id="mask0_25_17" style="mask-type:luminance" maskUnits="userSpaceOnUse" x="126" y="8" width="37" height="36">
<path d="M162.817 8H126.183V44H162.817V8Z" fill="white"/>
</mask>
<g mask="url(#mask0_25_17)">
<path d="M126.183 25.28C126.183 17.1341 126.183 13.0612 128.758 10.5306C131.333 8 135.478 8 143.767 8H145.233C153.522 8 157.667 8 160.242 10.5306C162.817 13.0612 162.817 17.1341 162.817 25.28V26.72C162.817 34.8659 162.817 38.9388 160.242 41.4694C157.667 44 153.522 44 145.233 44H143.767C135.478 44 131.333 44 128.758 41.4694C126.183 38.9388 126.183 34.8659 126.183 26.72V25.28Z" fill="#0077FF"/>
<path d="M145.675 33.9351C137.326 33.9351 132.564 28.3101 132.365 18.9501H136.548C136.685 25.8201 139.768 28.7301 142.21 29.3301V18.9501H146.149V24.8751C148.56 24.6201 151.094 21.9201 151.949 18.9501H155.887C155.231 22.6101 152.483 25.3101 150.529 26.4201C152.483 27.3201 155.612 29.6751 156.803 33.9351H152.468C151.537 31.0851 149.217 28.8801 146.149 28.5801V33.9351H145.675Z" fill="white"/>
</g>
</g>
<path d="M265.92 103C265.8 103 265.693 102.96 265.6 102.88C265.52 102.787 265.48 102.687 265.48 102.58V93.06C265.48 92.9267 265.52 92.82 265.6 92.74C265.693 92.6467 265.807 92.6 265.94 92.6H266.9C267.033 92.6 267.14 92.6467 267.22 92.74C267.3 92.82 267.34 92.9267 267.34 93.06V101.54L266.82 101L272.88 92.9C272.947 92.82 273.02 92.7533 273.1 92.7C273.18 92.6333 273.28 92.6 273.4 92.6H274.32C274.427 92.6 274.52 92.64 274.6 92.72C274.693 92.8 274.74 92.8933 274.74 93V102.54C274.74 102.673 274.693 102.787 274.6 102.88C274.52 102.96 274.413 103 274.28 103H273.34C273.193 103 273.08 102.96 273 102.88C272.92 102.787 272.88 102.673 272.88 102.54V94.56L273.44 94.54L267.34 102.7C267.287 102.767 267.22 102.833 267.14 102.9C267.06 102.967 266.953 103 266.82 103H265.92ZM277.168 103C277.034 103 276.921 102.953 276.828 102.86C276.734 102.767 276.688 102.653 276.688 102.52V101.78C276.688 101.5 276.828 101.353 277.108 101.34C277.521 101.327 277.868 101.133 278.148 100.76C278.428 100.373 278.641 99.7667 278.788 98.94C278.934 98.1 279.008 96.9933 279.008 95.62V93.06C279.008 92.9267 279.048 92.82 279.127 92.74C279.221 92.6467 279.334 92.6 279.468 92.6H285.828C285.961 92.6 286.068 92.6467 286.148 92.74C286.241 92.82 286.287 92.9267 286.287 93.06V102.54C286.287 102.673 286.241 102.787 286.148 102.88C286.068 102.96 285.961 103 285.828 103H284.868C284.734 103 284.628 102.96 284.548 102.88C284.468 102.787 284.428 102.673 284.428 102.54V94.2H280.828V95.84C280.828 97.12 280.754 98.22 280.608 99.14C280.461 100.047 280.234 100.787 279.928 101.36C279.634 101.92 279.254 102.333 278.788 102.6C278.334 102.867 277.794 103 277.168 103ZM289.709 103C289.589 103 289.482 102.96 289.389 102.88C289.309 102.787 289.269 102.687 289.269 102.58V93.06C289.269 92.9267 289.309 92.82 289.389 92.74C289.482 92.6467 289.596 92.6 289.729 92.6H290.689C290.822 92.6 290.929 92.6467 291.009 92.74C291.089 92.82 291.129 92.9267 291.129 93.06V101.54L290.609 101L296.669 92.9C296.736 92.82 296.809 92.7533 296.889 92.7C296.969 92.6333 297.069 92.6 297.189 92.6H298.109C298.216 92.6 298.309 92.64 298.389 92.72C298.482 92.8 298.529 92.8933 298.529 93V102.54C298.529 102.673 298.482 102.787 298.389 102.88C298.309 102.96 298.202 103 298.069 103H297.129C296.982 103 296.869 102.96 296.789 102.88C296.709 102.787 296.669 102.673 296.669 102.54V94.56L297.229 94.54L291.129 102.7C291.076 102.767 291.009 102.833 290.929 102.9C290.849 102.967 290.742 103 290.609 103H289.709Z" fill="#C67DC7"/>
<defs>
<clipPath id="clip0_25_17">
<rect width="37" height="36" fill="white" transform="translate(126 8)"/>
</clipPath>
</defs>
</svg>
