<svg width="37" height="36" viewBox="0 0 37 36" fill="none" xmlns="http://www.w3.org/2000/svg">
<g clip-path="url(#clip0_25_10)">
<mask id="mask0_25_10" style="mask-type:luminance" maskUnits="userSpaceOnUse" x="0" y="0" width="37" height="36">
<path d="M36.8168 0H0.183167V36H36.8168V0Z" fill="white"/>
</mask>
<g mask="url(#mask0_25_10)">
<path d="M0.183167 17.28C0.183167 9.13414 0.183167 5.0612 2.75831 2.5306C5.33346 0 9.47808 0 17.7673 0H19.2327C27.5219 0 31.6665 0 34.2417 2.5306C36.8168 5.0612 36.8168 9.13414 36.8168 17.28V18.72C36.8168 26.8659 36.8168 30.9388 34.2417 33.4694C31.6665 36 27.5219 36 19.2327 36H17.7673C9.47808 36 5.33346 36 2.75831 33.4694C0.183167 30.9388 0.183167 26.8659 0.183167 18.72V17.28Z" fill="#0077FF"/>
<path d="M19.6754 25.9351C11.326 25.9351 6.56362 20.3101 6.36517 10.9501H10.5475C10.6849 17.8201 13.7682 20.7301 16.2104 21.3301V10.9501H20.1487V16.8751C22.5604 16.6201 25.0939 13.9201 25.9487 10.9501H29.8869C29.2306 14.6101 26.483 17.3101 24.5292 18.4201C26.483 19.3201 29.6123 21.6751 30.8029 25.9351H26.4678C25.5367 23.0851 23.2167 20.8801 20.1487 20.5801V25.9351H19.6754Z" fill="white"/>
</g>
</g>
<defs>
<clipPath id="clip0_25_10">
<rect width="37" height="36" fill="white"/>
</clipPath>
</defs>
</svg>
