<svg width="364" height="37" viewBox="0 0 364 37" fill="none" xmlns="http://www.w3.org/2000/svg">
<path d="M14.063 2.79785C15.5864 2.79785 17.0806 2.97363 18.5454 3.3252C20.0396 3.67676 21.4604 4.2041 22.8081 4.90723C24.1558 5.58105 25.3423 6.48926 26.3677 7.63184C27.4224 8.77441 27.9937 10.1367 28.0815 11.7188V13.5645V27.583C27.9058 29.3408 26.939 30.293 25.1812 30.4395C24.3608 30.4395 23.6431 30.1758 23.0278 29.6484C22.4419 29.0918 22.1489 28.4033 22.1489 27.583V13.0811C22.0903 12.1729 21.7388 11.4258 21.0942 10.8398C20.479 10.2246 19.7759 9.74121 18.9849 9.38965C18.2231 9.03809 17.4175 8.77441 16.5679 8.59863C15.7476 8.42285 14.9126 8.33496 14.063 8.33496C13.2134 8.33496 12.3638 8.42285 11.5142 8.59863C10.6938 8.77441 9.88818 9.03809 9.09717 9.38965C8.33545 9.74121 7.63232 10.2246 6.98779 10.8398C6.37256 11.4258 6.03564 12.1729 5.97705 13.0811V27.583C5.83057 29.3408 4.87842 30.293 3.12061 30.4395C2.30029 30.4395 1.58252 30.1758 0.967285 29.6484C0.381348 29.0918 0.0883789 28.4033 0.0883789 27.583V13.5645V11.7188C0.17627 10.1367 0.73291 8.77441 1.7583 7.63184C2.78369 6.48926 3.97021 5.58105 5.31787 4.90723C6.66553 4.2041 8.07178 3.67676 9.53662 3.3252C11.0308 2.97363 12.5396 2.79785 14.063 2.79785ZM41.7925 3.98438H43.814H58.7554C59.5757 4.01367 60.2495 4.32129 60.7769 4.90723C61.3335 5.49316 61.6118 6.19629 61.6118 7.0166C61.4653 8.77441 60.5132 9.72656 58.7554 9.87305H43.2866C42.1733 9.93164 41.2505 10.3564 40.5181 11.1475C39.7856 11.9385 39.2437 12.8467 38.8921 13.8721C38.5698 14.8682 38.4087 15.8936 38.4087 16.9482C38.4087 18.0029 38.5698 19.043 38.8921 20.0684C39.2437 21.0645 39.7856 21.958 40.5181 22.749C41.2505 23.54 42.1733 23.9648 43.2866 24.0234H58.7554C59.5757 24.0527 60.2495 24.3604 60.7769 24.9463C61.3335 25.5322 61.6118 26.2354 61.6118 27.0557C61.5825 27.8467 61.2896 28.5205 60.7329 29.0771C60.2056 29.6045 59.5464 29.8828 58.7554 29.9121H42.6274H41.7925C39.7417 29.7949 38.0425 29.0186 36.6948 27.583C35.3765 26.1182 34.4243 24.4629 33.8384 22.6172C33.2817 20.7715 33.0034 18.8818 33.0034 16.9482C33.0034 15.0146 33.2964 13.125 33.8823 11.2793C34.4683 9.43359 35.4204 7.79297 36.7388 6.35742C38.0571 4.89258 39.7417 4.10156 41.7925 3.98438ZM61.5239 16.7725C61.5239 17.5928 61.231 18.2812 60.645 18.8379C60.0884 19.4238 59.3999 19.7168 58.5796 19.7168H45.3081C44.4878 19.7168 43.7847 19.4385 43.1987 18.8818C42.6421 18.2959 42.3638 17.5928 42.3638 16.7725C42.3638 15.9521 42.6421 15.249 43.1987 14.6631C43.7847 14.1064 44.4878 13.8281 45.3081 13.8281H58.5796C59.3999 13.8281 60.0884 14.1211 60.645 14.707C61.231 15.2637 61.5239 15.9521 61.5239 16.7725ZM89.605 3.98438C91.0991 4.01367 92.4321 4.48242 93.604 5.39062C94.7759 6.29883 95.7134 7.38281 96.4165 8.64258C97.1489 9.90234 97.6909 11.2354 98.0425 12.6416C98.394 14.0479 98.5698 15.4834 98.5698 16.9482C98.5698 18.8818 98.2622 20.7861 97.647 22.6611C97.061 24.5068 96.0796 26.1475 94.7026 27.583C93.355 29.0186 91.6558 29.7949 89.605 29.9121H74.2681C72.2173 29.8242 70.5034 29.0625 69.1265 27.627C67.7495 26.1914 66.7681 24.5361 66.1821 22.6611C65.6255 20.7861 65.3472 18.8818 65.3472 16.9482C65.3472 15.0146 65.6401 13.125 66.2261 11.2793C66.812 9.4043 67.7788 7.74902 69.1265 6.31348C70.5034 4.84863 72.2173 4.07227 74.2681 3.98438H75.103H88.77H89.605ZM88.1108 24.0234C89.2241 23.9648 90.147 23.5547 90.8794 22.793C91.6411 22.002 92.1831 21.0938 92.5054 20.0684C92.8276 19.043 92.9888 18.0029 92.9888 16.9482C92.9888 15.8936 92.813 14.8682 92.4614 13.8721C92.1392 12.8467 91.6118 11.9385 90.8794 11.1475C90.147 10.3564 89.2241 9.93164 88.1108 9.87305H75.6304C74.5171 9.93164 73.5942 10.3564 72.8618 11.1475C72.1294 11.9385 71.5874 12.8467 71.2358 13.8721C70.9136 14.8682 70.7524 15.8936 70.7524 16.9482C70.7524 18.0029 70.9136 19.043 71.2358 20.0684C71.5581 21.0938 72.0854 22.002 72.8179 22.793C73.5796 23.5547 74.5171 23.9648 75.6304 24.0234H88.1108ZM131.265 12.5098C131.265 13.2422 130.972 13.8574 130.386 14.3555C129.83 14.8242 129.141 15.0586 128.321 15.0586H109.732C109.351 15.0586 109.043 15.1318 108.809 15.2783C108.575 15.4248 108.399 15.5859 108.282 15.7617C108.165 15.9082 108.106 16.04 108.106 16.1572C108.106 16.3037 108.165 16.4648 108.282 16.6406C108.399 16.7871 108.575 16.9336 108.809 17.0801C109.043 17.1973 109.351 17.2705 109.732 17.2998H124.102C125.948 17.3291 127.471 17.6953 128.672 18.3984C129.874 19.0723 130.723 19.8779 131.221 20.8154C131.749 21.7236 132.012 22.6465 132.012 23.584C132.012 24.4922 131.749 25.415 131.221 26.3525C130.694 27.2607 129.83 28.0664 128.628 28.7695C127.457 29.4434 125.948 29.7803 124.102 29.7803C123.78 29.8096 123.545 29.8242 123.399 29.8242H106.348C105.528 29.8242 104.825 29.5898 104.239 29.1211C103.682 28.623 103.404 28.0225 103.404 27.3193C103.404 26.5869 103.697 25.9717 104.283 25.4736C104.839 25.0049 105.528 24.7705 106.348 24.7705H124.454C124.893 24.7998 125.245 24.7412 125.508 24.5947C125.801 24.4482 126.021 24.2871 126.167 24.1113C126.314 23.9355 126.387 23.7598 126.387 23.584C126.387 23.4961 126.314 23.3496 126.167 23.1445C126.021 22.9102 125.801 22.7344 125.508 22.6172C125.245 22.4707 124.893 22.3828 124.454 22.3535H110.04C108.34 22.3242 106.934 21.9727 105.821 21.2988C104.708 20.5957 103.917 19.79 103.448 18.8818C102.979 17.9736 102.745 17.0654 102.745 16.1572C102.745 15.249 102.979 14.3555 103.448 13.4766C103.946 12.5684 104.737 11.792 105.821 11.1475C106.934 10.4736 108.34 10.1074 110.04 10.0488C110.333 10.0195 110.552 10.0049 110.699 10.0049H128.321C129.141 10.0049 129.83 10.2539 130.386 10.752C130.972 11.2207 131.265 11.8066 131.265 12.5098ZM142.823 33.7354C142.647 35.4932 141.68 36.4453 139.922 36.5918C139.102 36.5918 138.384 36.3135 137.769 35.7568C137.183 35.2295 136.89 34.5557 136.89 33.7354V12.8174C136.919 11.9971 137.227 11.3232 137.813 10.7959C138.399 10.2393 139.102 9.96094 139.922 9.96094H158.379C160.958 10.0488 162.906 10.6641 164.224 11.8066C165.542 12.9199 166.495 14.1943 167.081 15.6299C167.667 17.0361 167.959 18.4717 167.959 19.9365C167.959 21.46 167.667 22.9395 167.081 24.375C166.524 25.7812 165.572 27.0557 164.224 28.1982C162.906 29.3115 161.221 29.8828 159.17 29.9121H148.096C147.276 29.9121 146.587 29.6191 146.031 29.0332C145.445 28.4766 145.152 27.7881 145.152 26.9678C145.152 26.1475 145.43 25.459 145.987 24.9023C146.573 24.3164 147.276 24.0234 148.096 24.0234H159.346C159.903 24.0234 160.386 23.8037 160.796 23.3643C161.207 22.8955 161.5 22.3682 161.675 21.7822C161.88 21.167 161.983 20.5664 161.983 19.9805C161.983 19.3652 161.88 18.7646 161.675 18.1787C161.5 17.5635 161.207 17.0361 160.796 16.5967C160.386 16.1279 159.903 15.8789 159.346 15.8496H143.965C143.204 15.8789 142.823 16.2598 142.823 16.9922V33.7354ZM176.353 9.52148C177.144 9.55078 177.818 9.84375 178.375 10.4004C178.931 10.9277 179.224 11.5869 179.253 12.3779V27.583C179.078 29.3408 178.111 30.293 176.353 30.4395C175.533 30.4395 174.815 30.1758 174.2 29.6484C173.614 29.0918 173.321 28.4033 173.321 27.583V12.3779C173.35 11.5576 173.658 10.8838 174.244 10.3564C174.83 9.7998 175.533 9.52148 176.353 9.52148ZM172.662 3.80859C172.662 2.98828 173.013 2.28516 173.716 1.69922C174.419 1.11328 175.269 0.820312 176.265 0.820312C177.261 0.820312 178.111 1.11328 178.814 1.69922C179.517 2.28516 179.869 2.98828 179.869 3.80859C179.869 4.6582 179.517 5.37598 178.814 5.96191C178.111 6.54785 177.261 6.84082 176.265 6.84082C175.269 6.84082 174.419 6.54785 173.716 5.96191C173.013 5.37598 172.662 4.6582 172.662 3.80859ZM185.538 15.498C186.094 14.0918 187.032 12.832 188.35 11.7188C189.698 10.5762 191.397 9.99023 193.448 9.96094H209.971C210.792 9.96094 211.48 10.2539 212.037 10.8398C212.623 11.3965 212.916 12.085 212.916 12.9053C212.916 13.7256 212.623 14.4287 212.037 15.0146C211.48 15.5713 210.792 15.8496 209.971 15.8496H193.272C192.715 15.8496 192.232 16.084 191.822 16.5527C191.412 16.9922 191.089 17.5195 190.855 18.1348C190.65 18.75 190.547 19.3359 190.547 19.8926V27.583C190.372 29.3408 189.405 30.293 187.647 30.4395C186.827 30.4395 186.109 30.1758 185.494 29.6484C184.908 29.0918 184.615 28.4033 184.615 27.583V19.9365H184.659C184.659 18.4131 184.952 16.9336 185.538 15.498ZM241.832 27.583V16.9922C241.832 16.2598 241.451 15.8789 240.689 15.8496H225.308C224.751 15.8789 224.268 16.1279 223.858 16.5967C223.448 17.0361 223.14 17.5635 222.935 18.1787C222.759 18.7646 222.671 19.3652 222.671 19.9805C222.671 20.5664 222.759 21.167 222.935 21.7822C223.14 22.3682 223.448 22.8955 223.858 23.3643C224.268 23.8037 224.751 24.0234 225.308 24.0234H236.558C237.378 24.0234 238.067 24.3164 238.624 24.9023C239.209 25.459 239.502 26.1475 239.502 26.9678C239.502 27.7881 239.209 28.4766 238.624 29.0332C238.067 29.6191 237.378 29.9121 236.558 29.9121H225.484C223.433 29.8828 221.734 29.3115 220.386 28.1982C219.068 27.0557 218.116 25.7812 217.53 24.375C216.973 22.9395 216.695 21.46 216.695 19.9365C216.695 18.4717 216.988 17.0361 217.574 15.6299C218.16 14.1943 219.112 12.9199 220.43 11.8066C221.749 10.6641 223.697 10.0488 226.275 9.96094H244.732C245.552 9.96094 246.255 10.2393 246.841 10.7959C247.427 11.3232 247.735 11.9971 247.764 12.8174V27.583C247.764 28.4033 247.457 29.0918 246.841 29.6484C246.255 30.1758 245.552 30.4395 244.732 30.4395C242.974 30.293 242.007 29.3408 241.832 27.583ZM262.969 3.28125C263.79 3.28125 264.493 3.55957 265.079 4.11621C265.665 4.64355 265.972 5.31738 266.001 6.1377V9.96094H280.943C281.763 9.96094 282.466 10.2393 283.052 10.7959C283.609 11.3818 283.887 12.085 283.887 12.9053C283.887 13.7256 283.594 14.4287 283.008 15.0146C282.452 15.5713 281.763 15.8496 280.943 15.8496H266.001V16.7285C265.972 17.9297 266.045 19.043 266.221 20.0684C266.426 21.0645 266.895 21.958 267.627 22.749C268.36 23.54 269.283 23.9648 270.396 24.0234H281.119C281.939 24.0527 282.613 24.3604 283.14 24.9463C283.697 25.5322 283.975 26.2354 283.975 27.0557C283.946 27.8467 283.653 28.5205 283.096 29.0771C282.569 29.6045 281.91 29.8828 281.119 29.9121H268.902C266.851 29.7949 265.152 29.1064 263.804 27.8467C262.486 26.5576 261.534 24.9902 260.948 23.1445C260.391 21.2988 260.098 19.3359 260.069 17.2559V15.8496H255.015C254.195 15.8496 253.506 15.5566 252.95 14.9707C252.364 14.4141 252.071 13.7256 252.071 12.9053C252.071 12.085 252.349 11.3965 252.906 10.8398C253.492 10.2539 254.195 9.96094 255.015 9.96094H260.069V6.1377C260.098 5.34668 260.391 4.6875 260.948 4.16016C261.504 3.60352 262.178 3.31055 262.969 3.28125ZM291.226 9.52148C292.017 9.55078 292.691 9.84375 293.248 10.4004C293.804 10.9277 294.097 11.5869 294.126 12.3779V27.583C293.951 29.3408 292.984 30.293 291.226 30.4395C290.406 30.4395 289.688 30.1758 289.073 29.6484C288.487 29.0918 288.194 28.4033 288.194 27.583V12.3779C288.223 11.5576 288.531 10.8838 289.117 10.3564C289.703 9.7998 290.406 9.52148 291.226 9.52148ZM287.535 3.80859C287.535 2.98828 287.886 2.28516 288.589 1.69922C289.292 1.11328 290.142 0.820312 291.138 0.820312C292.134 0.820312 292.984 1.11328 293.687 1.69922C294.39 2.28516 294.742 2.98828 294.742 3.80859C294.742 4.6582 294.39 5.37598 293.687 5.96191C292.984 6.54785 292.134 6.84082 291.138 6.84082C290.142 6.84082 289.292 6.54785 288.589 5.96191C287.886 5.37598 287.535 4.6582 287.535 3.80859ZM308.584 29.9121C306.006 29.8242 304.058 29.2236 302.74 28.1104C301.421 26.9678 300.469 25.6934 299.883 24.2871C299.297 22.8516 299.004 21.4014 299.004 19.9365C299.004 18.4131 299.283 16.9482 299.839 15.542C300.425 14.1064 301.377 12.832 302.696 11.7188C304.043 10.5762 305.743 9.99023 307.793 9.96094H322.032C324.083 9.99023 325.767 10.5762 327.085 11.7188C328.433 12.832 329.385 14.1064 329.942 15.542C330.528 16.9482 330.821 18.4131 330.821 19.9365C330.821 21.4014 330.528 22.8516 329.942 24.2871C329.356 25.6934 328.404 26.9678 327.085 28.1104C325.767 29.2236 323.819 29.8242 321.241 29.9121H308.584ZM307.618 15.8496C307.061 15.8496 306.578 16.084 306.167 16.5527C305.757 16.9922 305.45 17.5195 305.245 18.1348C305.069 18.7207 304.981 19.3066 304.981 19.8926C304.981 20.5078 305.069 21.123 305.245 21.7383C305.45 22.3242 305.757 22.8516 306.167 23.3203C306.578 23.7598 307.061 23.9941 307.618 24.0234H322.208C322.764 23.9941 323.248 23.7598 323.658 23.3203C324.068 22.8516 324.361 22.3242 324.537 21.7383C324.742 21.123 324.844 20.5078 324.844 19.8926C324.844 19.3066 324.742 18.7207 324.537 18.1348C324.361 17.5195 324.068 16.9922 323.658 16.5527C323.248 16.084 322.764 15.8496 322.208 15.8496H307.618ZM349.893 9.30176C351.417 9.30176 352.911 9.47754 354.375 9.8291C355.87 10.1807 357.291 10.708 358.638 11.4111C359.986 12.085 361.172 12.9932 362.198 14.1357C363.252 15.2783 363.824 16.6406 363.912 18.2227V20.0684V27.583C363.736 29.3408 362.769 30.293 361.011 30.4395C360.191 30.4395 359.473 30.1758 358.858 29.6484C358.272 29.0918 357.979 28.4033 357.979 27.583V25.6494V19.585C357.92 18.6768 357.569 17.9297 356.924 17.3438C356.309 16.7285 355.606 16.2451 354.815 15.8936C354.053 15.542 353.248 15.2783 352.398 15.1025C351.578 14.9268 350.743 14.8389 349.893 14.8389C349.043 14.8389 348.194 14.9268 347.344 15.1025C346.524 15.2783 345.718 15.542 344.927 15.8936C344.166 16.2451 343.462 16.7285 342.818 17.3438C342.203 17.9297 341.866 18.6768 341.807 19.585V25.6494V27.583C341.661 29.3408 340.708 30.293 338.951 30.4395C338.13 30.4395 337.413 30.1758 336.797 29.6484C336.211 29.0918 335.918 28.4033 335.918 27.583V20.0684V18.2227C336.006 16.6406 336.563 15.2783 337.588 14.1357C338.614 12.9932 339.8 12.085 341.148 11.4111C342.496 10.708 343.902 10.1807 345.367 9.8291C346.861 9.47754 348.37 9.30176 349.893 9.30176Z" fill="white"/>
</svg>
