<svg width="533" height="31" viewBox="0 0 533 31" fill="none" xmlns="http://www.w3.org/2000/svg">
<path d="M1.04 24C0.805334 24 0.613334 23.9253 0.464 23.776C0.314667 23.6267 0.24 23.4347 0.24 23.2V2.4C0.24 2.16533 0.314667 1.97333 0.464 1.824C0.613334 1.67467 0.805334 1.6 1.04 1.6H10.8C12.6347 1.6 14.1387 1.856 15.312 2.368C16.4853 2.88 17.3493 3.616 17.904 4.576C18.48 5.51467 18.768 6.63467 18.768 7.936C18.768 8.704 18.6187 9.38667 18.32 9.984C18.0427 10.56 17.6907 11.04 17.264 11.424C16.8587 11.808 16.4747 12.0853 16.112 12.256C16.9227 12.64 17.6373 13.2693 18.256 14.144C18.896 15.0187 19.216 16.0427 19.216 17.216C19.216 18.624 18.896 19.84 18.256 20.864C17.6373 21.8667 16.72 22.6453 15.504 23.2C14.3093 23.7333 12.8373 24 11.088 24H1.04ZM5.968 19.84H10.448C11.3653 19.84 12.0587 19.5733 12.528 19.04C12.9973 18.5067 13.232 17.8987 13.232 17.216C13.232 16.4693 12.9867 15.84 12.496 15.328C12.0267 14.816 11.344 14.56 10.448 14.56H5.968V19.84ZM5.968 10.496H10.16C11.0347 10.496 11.6853 10.272 12.112 9.824C12.56 9.376 12.784 8.8 12.784 8.096C12.784 7.41333 12.56 6.85867 12.112 6.432C11.6853 5.984 11.0347 5.76 10.16 5.76H5.968V10.496ZM30.2913 24.32C28.4993 24.32 26.9846 24.032 25.7473 23.456C24.5313 22.88 23.5926 22.0587 22.9313 20.992C22.2913 19.904 21.9286 18.6133 21.8433 17.12C21.8219 16.6933 21.8113 16.2133 21.8113 15.68C21.8113 15.1253 21.8219 14.6453 21.8433 14.24C21.9286 12.7253 22.3126 11.4347 22.9953 10.368C23.6779 9.30133 24.6273 8.48 25.8433 7.904C27.0806 7.328 28.5633 7.04 30.2913 7.04C32.0406 7.04 33.5233 7.328 34.7393 7.904C35.9766 8.48 36.9366 9.30133 37.6193 10.368C38.3019 11.4347 38.6859 12.7253 38.7713 14.24C38.7926 14.6453 38.8033 15.1253 38.8033 15.68C38.8033 16.2133 38.7926 16.6933 38.7713 17.12C38.6859 18.6133 38.3126 19.904 37.6513 20.992C37.0113 22.0587 36.0726 22.88 34.8353 23.456C33.6193 24.032 32.1046 24.32 30.2913 24.32ZM30.2913 20.416C31.2513 20.416 31.9446 20.128 32.3713 19.552C32.8193 18.976 33.0753 18.112 33.1393 16.96C33.1606 16.64 33.1713 16.2133 33.1713 15.68C33.1713 15.1467 33.1606 14.72 33.1393 14.4C33.0753 13.2693 32.8193 12.416 32.3713 11.84C31.9446 11.2427 31.2513 10.944 30.2913 10.944C29.3526 10.944 28.6593 11.2427 28.2113 11.84C27.7633 12.416 27.5179 13.2693 27.4753 14.4C27.4539 14.72 27.4433 15.1467 27.4433 15.68C27.4433 16.2133 27.4539 16.64 27.4753 16.96C27.5179 18.112 27.7633 18.976 28.2113 19.552C28.6593 20.128 29.3526 20.416 30.2913 20.416ZM42.7185 24C42.5052 24 42.3238 23.9253 42.1745 23.776C42.0252 23.6267 41.9505 23.4453 41.9505 23.232V8.16C41.9505 7.92533 42.0252 7.73333 42.1745 7.584C42.3238 7.43467 42.5158 7.36 42.7505 7.36H46.5265C46.7398 7.36 46.9212 7.43467 47.0705 7.584C47.2412 7.73333 47.3265 7.92533 47.3265 8.16V19.84L45.8865 19.136L53.7905 7.872C53.8972 7.72267 54.0252 7.60533 54.1745 7.52C54.3238 7.41333 54.4945 7.36 54.6865 7.36H58.1105C58.3238 7.36 58.5052 7.43467 58.6545 7.584C58.8038 7.73333 58.8785 7.91467 58.8785 8.128V23.2C58.8785 23.4347 58.8038 23.6267 58.6545 23.776C58.5052 23.9253 58.3132 24 58.0785 24H54.3025C54.0678 24 53.8758 23.9253 53.7265 23.776C53.5772 23.6267 53.5025 23.4347 53.5025 23.2V11.872L54.9745 12.16L47.0065 23.488C46.9212 23.6373 46.8038 23.7653 46.6545 23.872C46.5052 23.9573 46.3238 24 46.1105 24H42.7185ZM50.6545 5.184C49.3318 5.184 48.2545 4.98133 47.4225 4.576C46.5905 4.17067 45.9825 3.616 45.5985 2.912C45.2358 2.208 45.0545 1.44 45.0545 0.608C45.0545 0.437333 45.0972 0.298666 45.1825 0.191999C45.2892 0.0639985 45.4492 -1.90735e-06 45.6625 -1.90735e-06H48.2225C48.4145 -1.90735e-06 48.5638 0.0639985 48.6705 0.191999C48.7772 0.298666 48.8305 0.437333 48.8305 0.608C48.8305 1.056 48.9478 1.45067 49.1825 1.792C49.4385 2.13333 49.9292 2.304 50.6545 2.304C51.4012 2.304 51.8918 2.13333 52.1265 1.792C52.3825 1.45067 52.5105 1.056 52.5105 0.608C52.5105 0.437333 52.5638 0.298666 52.6705 0.191999C52.7772 0.0639985 52.9265 -1.90735e-06 53.1185 -1.90735e-06H55.6785C55.8705 -1.90735e-06 56.0198 0.0639985 56.1265 0.191999C56.2332 0.298666 56.2865 0.437333 56.2865 0.608C56.2865 1.44 56.0945 2.208 55.7105 2.912C55.3478 3.616 54.7505 4.17067 53.9185 4.576C53.0865 4.98133 51.9985 5.184 50.6545 5.184ZM62.0048 27.52C61.7914 27.52 61.5994 27.4453 61.4288 27.296C61.2794 27.1467 61.2048 26.9547 61.2048 26.72V20.608C61.2048 20.3733 61.2794 20.1813 61.4288 20.032C61.5994 19.8827 61.7914 19.808 62.0048 19.808H62.3248C62.8794 19.808 63.3061 19.5307 63.6048 18.976C63.9248 18.4213 64.1381 17.6213 64.2448 16.576C64.3728 15.5093 64.4368 14.208 64.4368 12.672V8.16C64.4368 7.92533 64.5114 7.73333 64.6608 7.584C64.8314 7.43467 65.0234 7.36 65.2368 7.36H77.8128C78.0474 7.36 78.2394 7.43467 78.3888 7.584C78.5381 7.73333 78.6128 7.92533 78.6128 8.16V19.776H79.9888C80.2234 19.776 80.4154 19.8613 80.5648 20.032C80.7141 20.1813 80.7888 20.3627 80.7888 20.576V26.72C80.7888 26.9547 80.7141 27.1467 80.5648 27.296C80.4154 27.4453 80.2234 27.52 79.9888 27.52H76.2128C75.9781 27.52 75.7861 27.4453 75.6368 27.296C75.4874 27.1467 75.4128 26.9547 75.4128 26.72V24H66.6128V26.72C66.6128 26.9547 66.5274 27.1467 66.3568 27.296C66.2074 27.4453 66.0154 27.52 65.7808 27.52H62.0048ZM68.4368 19.808L73.2368 19.776V11.552H69.5888V13.248C69.5888 14.848 69.4821 16.192 69.2688 17.28C69.0768 18.3467 68.7994 19.1893 68.4368 19.808ZM84.1248 24C83.9114 24 83.7301 23.9253 83.5807 23.776C83.4314 23.6267 83.3568 23.4453 83.3568 23.232V8.16C83.3568 7.92533 83.4314 7.73333 83.5807 7.584C83.7301 7.43467 83.9221 7.36 84.1568 7.36H87.9328C88.1461 7.36 88.3274 7.43467 88.4768 7.584C88.6474 7.73333 88.7328 7.92533 88.7328 8.16V19.84L87.2928 19.136L95.1968 7.872C95.3034 7.72267 95.4314 7.60533 95.5808 7.52C95.7301 7.41333 95.9008 7.36 96.0928 7.36H99.5168C99.7301 7.36 99.9114 7.43467 100.061 7.584C100.21 7.73333 100.285 7.91467 100.285 8.128V23.2C100.285 23.4347 100.21 23.6267 100.061 23.776C99.9114 23.9253 99.7194 24 99.4848 24H95.7088C95.4741 24 95.2821 23.9253 95.1328 23.776C94.9834 23.6267 94.9088 23.4347 94.9088 23.2V11.872L96.3808 12.16L88.4128 23.488C88.3274 23.6373 88.2101 23.7653 88.0608 23.872C87.9114 23.9573 87.7301 24 87.5168 24H84.1248ZM108.787 24C108.574 24 108.382 23.9253 108.211 23.776C108.062 23.6267 107.987 23.4347 107.987 23.2V11.552H103.123C102.91 11.552 102.718 11.4773 102.547 11.328C102.398 11.1787 102.323 10.9867 102.323 10.752V8.16C102.323 7.92533 102.398 7.73333 102.547 7.584C102.718 7.43467 102.91 7.36 103.123 7.36H118.163C118.376 7.36 118.558 7.43467 118.707 7.584C118.878 7.73333 118.963 7.92533 118.963 8.16V10.752C118.963 10.9867 118.878 11.1787 118.707 11.328C118.558 11.4773 118.376 11.552 118.163 11.552H113.299V23.2C113.299 23.4347 113.224 23.6267 113.075 23.776C112.926 23.9253 112.734 24 112.499 24H108.787ZM128.974 24.32C126.457 24.32 124.452 23.6373 122.958 22.272C121.465 20.9067 120.686 18.88 120.622 16.192C120.622 16.0427 120.622 15.8507 120.622 15.616C120.622 15.3813 120.622 15.2 120.622 15.072C120.686 13.3867 121.06 11.9467 121.742 10.752C122.446 9.536 123.406 8.61867 124.622 8C125.86 7.36 127.3 7.04 128.942 7.04C130.82 7.04 132.366 7.41333 133.582 8.16C134.82 8.90667 135.748 9.92 136.366 11.2C136.985 12.48 137.294 13.9413 137.294 15.584V16.352C137.294 16.5867 137.209 16.7787 137.038 16.928C136.889 17.0773 136.708 17.152 136.494 17.152H126.254C126.254 17.1733 126.254 17.2053 126.254 17.248C126.254 17.2907 126.254 17.3333 126.254 17.376C126.276 17.9947 126.382 18.56 126.574 19.072C126.766 19.584 127.065 19.9893 127.47 20.288C127.876 20.5867 128.366 20.736 128.942 20.736C129.369 20.736 129.721 20.672 129.998 20.544C130.297 20.3947 130.542 20.2347 130.734 20.064C130.926 19.872 131.076 19.712 131.182 19.584C131.374 19.3707 131.524 19.2427 131.63 19.2C131.758 19.136 131.95 19.104 132.206 19.104H136.174C136.388 19.104 136.558 19.168 136.686 19.296C136.836 19.4027 136.9 19.5627 136.878 19.776C136.857 20.1387 136.676 20.576 136.334 21.088C135.993 21.6 135.492 22.112 134.83 22.624C134.19 23.1147 133.38 23.52 132.398 23.84C131.417 24.16 130.276 24.32 128.974 24.32ZM126.254 13.984H131.662V13.92C131.662 13.2373 131.556 12.64 131.342 12.128C131.15 11.616 130.841 11.2213 130.414 10.944C130.009 10.6667 129.518 10.528 128.942 10.528C128.366 10.528 127.876 10.6667 127.47 10.944C127.086 11.2213 126.788 11.616 126.574 12.128C126.361 12.64 126.254 13.2373 126.254 13.92V13.984ZM147.875 24C147.661 24 147.48 23.9253 147.331 23.776C147.181 23.6267 147.107 23.4453 147.107 23.232V8.16C147.107 7.92533 147.181 7.73333 147.331 7.584C147.48 7.43467 147.672 7.36 147.907 7.36H151.683C151.896 7.36 152.077 7.43467 152.227 7.584C152.397 7.73333 152.483 7.92533 152.483 8.16V19.84L151.043 19.136L158.947 7.872C159.053 7.72267 159.181 7.60533 159.331 7.52C159.48 7.41333 159.651 7.36 159.843 7.36H163.267C163.48 7.36 163.661 7.43467 163.811 7.584C163.96 7.73333 164.035 7.91467 164.035 8.128V23.2C164.035 23.4347 163.96 23.6267 163.811 23.776C163.661 23.9253 163.469 24 163.235 24H159.459C159.224 24 159.032 23.9253 158.883 23.776C158.733 23.6267 158.659 23.4347 158.659 23.2V11.872L160.131 12.16L152.163 23.488C152.077 23.6373 151.96 23.7653 151.811 23.872C151.661 23.9573 151.48 24 151.267 24H147.875ZM167.225 24C167.012 24 166.82 23.9253 166.649 23.776C166.5 23.6053 166.425 23.4133 166.425 23.2V20.384C166.425 19.9147 166.681 19.648 167.193 19.584C167.812 19.52 168.281 19.232 168.601 18.72C168.921 18.208 169.145 17.4507 169.273 16.448C169.401 15.4453 169.465 14.1867 169.465 12.672V8.16C169.465 7.92533 169.54 7.73333 169.689 7.584C169.86 7.43467 170.052 7.36 170.265 7.36H182.809C183.044 7.36 183.236 7.43467 183.385 7.584C183.534 7.73333 183.609 7.92533 183.609 8.16V23.2C183.609 23.4347 183.534 23.6267 183.385 23.776C183.236 23.9253 183.044 24 182.809 24H179.033C178.82 24 178.628 23.9253 178.457 23.776C178.308 23.6267 178.233 23.4347 178.233 23.2V11.552H174.585V13.248C174.585 15.296 174.478 17.0133 174.265 18.4C174.052 19.7867 173.668 20.8853 173.113 21.696C172.558 22.5067 171.801 23.0933 170.841 23.456C169.881 23.8187 168.676 24 167.225 24ZM188.281 24C188.068 24 187.886 23.9253 187.737 23.776C187.588 23.6267 187.513 23.4453 187.513 23.232V8.16C187.513 7.92533 187.588 7.73333 187.737 7.584C187.886 7.43467 188.078 7.36 188.313 7.36H192.089C192.302 7.36 192.484 7.43467 192.633 7.584C192.804 7.73333 192.889 7.92533 192.889 8.16V19.84L191.449 19.136L199.353 7.872C199.46 7.72267 199.588 7.60533 199.737 7.52C199.886 7.41333 200.057 7.36 200.249 7.36H203.673C203.886 7.36 204.068 7.43467 204.217 7.584C204.366 7.73333 204.441 7.91467 204.441 8.128V23.2C204.441 23.4347 204.366 23.6267 204.217 23.776C204.068 23.9253 203.876 24 203.641 24H199.865C199.63 24 199.438 23.9253 199.289 23.776C199.14 23.6267 199.065 23.4347 199.065 23.2V11.872L200.537 12.16L192.569 23.488C192.484 23.6373 192.366 23.7653 192.217 23.872C192.068 23.9573 191.886 24 191.673 24H188.281ZM221.708 24.32C220.214 24.32 218.977 24.16 217.996 23.84C217.036 23.52 216.268 23.104 215.692 22.592C215.116 22.08 214.7 21.5467 214.444 20.992C214.209 20.416 214.06 19.904 213.996 19.456C213.974 19.2853 214.028 19.1467 214.156 19.04C214.284 18.9333 214.422 18.88 214.572 18.88H218.284C218.518 18.88 218.689 18.9227 218.796 19.008C218.924 19.0933 219.03 19.2107 219.116 19.36C219.308 19.7867 219.617 20.096 220.044 20.288C220.492 20.48 221.068 20.576 221.772 20.576C222.262 20.576 222.689 20.512 223.052 20.384C223.436 20.256 223.724 20.064 223.916 19.808C224.108 19.552 224.204 19.232 224.204 18.848C224.204 18.3147 224.044 17.9093 223.724 17.632C223.404 17.3333 222.849 17.184 222.06 17.184H220.268C220.076 17.184 219.916 17.12 219.788 16.992C219.66 16.8427 219.596 16.672 219.596 16.48V14.656C219.596 14.464 219.66 14.304 219.788 14.176C219.916 14.0267 220.076 13.952 220.268 13.952H221.996C222.657 13.952 223.137 13.8347 223.436 13.6C223.734 13.3653 223.884 13.0027 223.884 12.512C223.884 12.2133 223.809 11.936 223.66 11.68C223.51 11.424 223.276 11.2213 222.956 11.072C222.636 10.9013 222.198 10.816 221.644 10.816C220.854 10.816 220.289 10.9333 219.948 11.168C219.628 11.3813 219.361 11.7227 219.148 12.192C219.062 12.3413 218.956 12.4587 218.828 12.544C218.721 12.6293 218.55 12.672 218.316 12.672H214.732C214.561 12.672 214.422 12.6187 214.316 12.512C214.209 12.4053 214.156 12.2667 214.156 12.096C214.22 11.5413 214.38 10.976 214.636 10.4C214.913 9.80267 215.34 9.248 215.916 8.736C216.492 8.224 217.249 7.81867 218.188 7.52C219.126 7.2 220.3 7.04 221.708 7.04C223.521 7.04 224.961 7.264 226.028 7.712C227.116 8.13867 227.894 8.71467 228.364 9.44C228.833 10.144 229.068 10.9227 229.068 11.776C229.068 12.5013 228.918 13.1627 228.62 13.76C228.321 14.3573 227.788 14.848 227.02 15.232C227.98 15.5947 228.641 16.1493 229.004 16.896C229.366 17.6427 229.548 18.4427 229.548 19.296C229.548 20.32 229.228 21.2053 228.588 21.952C227.969 22.6987 227.073 23.2853 225.9 23.712C224.726 24.1173 223.329 24.32 221.708 24.32ZM237.568 24.32C236.416 24.32 235.381 24.1067 234.464 23.68C233.568 23.232 232.853 22.6347 232.32 21.888C231.786 21.1413 231.52 20.2987 231.52 19.36C231.52 17.8453 232.138 16.6507 233.376 15.776C234.613 14.88 236.256 14.272 238.304 13.952L242.304 13.344V12.896C242.304 12.128 242.144 11.5413 241.824 11.136C241.504 10.7307 240.917 10.528 240.064 10.528C239.466 10.528 238.976 10.6453 238.592 10.88C238.229 11.1147 237.941 11.4347 237.728 11.84C237.536 12.1173 237.269 12.256 236.928 12.256H233.344C233.109 12.256 232.928 12.192 232.799 12.064C232.672 11.9147 232.618 11.744 232.64 11.552C232.64 11.168 232.778 10.7307 233.056 10.24C233.354 9.728 233.802 9.22667 234.4 8.736C234.997 8.24533 235.765 7.84 236.704 7.52C237.642 7.2 238.773 7.04 240.095 7.04C241.482 7.04 242.666 7.2 243.648 7.52C244.629 7.84 245.418 8.288 246.016 8.864C246.634 9.44 247.093 10.1227 247.392 10.912C247.69 11.68 247.84 12.5333 247.84 13.472V23.2C247.84 23.4347 247.754 23.6267 247.583 23.776C247.434 23.9253 247.253 24 247.04 24H243.328C243.093 24 242.901 23.9253 242.752 23.776C242.602 23.6267 242.528 23.4347 242.528 23.2V22.08C242.25 22.4853 241.877 22.8587 241.408 23.2C240.938 23.5413 240.384 23.808 239.744 24C239.125 24.2133 238.4 24.32 237.568 24.32ZM239.072 20.672C239.69 20.672 240.245 20.544 240.736 20.288C241.248 20.0107 241.642 19.5947 241.92 19.04C242.218 18.464 242.368 17.7493 242.368 16.896V16.448L239.648 16.928C238.645 17.0987 237.909 17.3653 237.44 17.728C236.992 18.0693 236.768 18.4747 236.768 18.944C236.768 19.3067 236.874 19.616 237.088 19.872C237.301 20.128 237.578 20.3307 237.92 20.48C238.261 20.608 238.645 20.672 239.072 20.672ZM252.251 30.08C252.016 30.08 251.824 30.0053 251.674 29.856C251.525 29.7067 251.451 29.5147 251.451 29.28V8.16C251.451 7.92533 251.525 7.73333 251.674 7.584C251.824 7.43467 252.016 7.36 252.251 7.36H255.867C256.08 7.36 256.261 7.43467 256.411 7.584C256.581 7.73333 256.667 7.92533 256.667 8.16V9.344C257.157 8.68267 257.808 8.13867 258.619 7.712C259.429 7.264 260.432 7.04 261.627 7.04C262.693 7.04 263.632 7.21067 264.443 7.552C265.253 7.872 265.947 8.352 266.523 8.992C267.099 9.632 267.547 10.4107 267.867 11.328C268.208 12.2453 268.4 13.3013 268.443 14.496C268.464 14.9227 268.475 15.3173 268.475 15.68C268.475 16.0427 268.464 16.4373 268.443 16.864C268.4 18.016 268.219 19.0507 267.899 19.968C267.579 20.8853 267.131 21.664 266.555 22.304C265.979 22.944 265.275 23.4453 264.443 23.808C263.632 24.1493 262.693 24.32 261.627 24.32C260.581 24.32 259.664 24.1387 258.875 23.776C258.107 23.392 257.467 22.8587 256.955 22.176V29.28C256.955 29.5147 256.88 29.7067 256.731 29.856C256.581 30.0053 256.389 30.08 256.155 30.08H252.251ZM259.899 20.032C260.624 20.032 261.189 19.8827 261.595 19.584C262 19.2853 262.288 18.88 262.459 18.368C262.651 17.856 262.768 17.2907 262.811 16.672C262.853 16.0107 262.853 15.3493 262.811 14.688C262.768 14.0693 262.651 13.504 262.459 12.992C262.288 12.48 262 12.0747 261.595 11.776C261.189 11.4773 260.624 11.328 259.899 11.328C259.195 11.328 258.629 11.488 258.203 11.808C257.776 12.1067 257.467 12.5013 257.275 12.992C257.083 13.4827 256.976 14.016 256.955 14.592C256.933 14.9973 256.923 15.392 256.923 15.776C256.923 16.16 256.933 16.5653 256.955 16.992C256.976 17.5253 257.093 18.0267 257.307 18.496C257.52 18.944 257.84 19.3173 258.267 19.616C258.693 19.8933 259.237 20.032 259.899 20.032ZM279.318 24.32C276.801 24.32 274.795 23.6373 273.302 22.272C271.809 20.9067 271.03 18.88 270.966 16.192C270.966 16.0427 270.966 15.8507 270.966 15.616C270.966 15.3813 270.966 15.2 270.966 15.072C271.03 13.3867 271.403 11.9467 272.086 10.752C272.79 9.536 273.75 8.61867 274.966 8C276.203 7.36 277.643 7.04 279.286 7.04C281.163 7.04 282.71 7.41333 283.926 8.16C285.163 8.90667 286.091 9.92 286.71 11.2C287.329 12.48 287.638 13.9413 287.638 15.584V16.352C287.638 16.5867 287.553 16.7787 287.382 16.928C287.233 17.0773 287.051 17.152 286.838 17.152H276.598C276.598 17.1733 276.598 17.2053 276.598 17.248C276.598 17.2907 276.598 17.3333 276.598 17.376C276.619 17.9947 276.726 18.56 276.918 19.072C277.11 19.584 277.409 19.9893 277.814 20.288C278.219 20.5867 278.71 20.736 279.286 20.736C279.713 20.736 280.065 20.672 280.342 20.544C280.641 20.3947 280.886 20.2347 281.078 20.064C281.27 19.872 281.419 19.712 281.526 19.584C281.718 19.3707 281.867 19.2427 281.974 19.2C282.102 19.136 282.294 19.104 282.55 19.104H286.518C286.731 19.104 286.902 19.168 287.03 19.296C287.179 19.4027 287.243 19.5627 287.222 19.776C287.201 20.1387 287.019 20.576 286.678 21.088C286.337 21.6 285.835 22.112 285.174 22.624C284.534 23.1147 283.723 23.52 282.742 23.84C281.761 24.16 280.619 24.32 279.318 24.32ZM276.598 13.984H282.006V13.92C282.006 13.2373 281.899 12.64 281.686 12.128C281.494 11.616 281.185 11.2213 280.758 10.944C280.353 10.6667 279.862 10.528 279.286 10.528C278.71 10.528 278.219 10.6667 277.814 10.944C277.43 11.2213 277.131 11.616 276.918 12.128C276.705 12.64 276.598 13.2373 276.598 13.92V13.984ZM291.438 24C291.203 24 291.011 23.9253 290.862 23.776C290.713 23.6267 290.638 23.4347 290.638 23.2V8.16C290.638 7.92533 290.713 7.73333 290.862 7.584C291.011 7.43467 291.203 7.36 291.438 7.36H302.126C302.339 7.36 302.521 7.43467 302.67 7.584C302.841 7.73333 302.926 7.92533 302.926 8.16V10.752C302.926 10.9867 302.841 11.1787 302.67 11.328C302.521 11.4773 302.339 11.552 302.126 11.552H296.014V23.2C296.014 23.4347 295.929 23.6267 295.758 23.776C295.609 23.9253 295.427 24 295.214 24H291.438ZM306.094 24C305.88 24 305.699 23.9253 305.549 23.776C305.4 23.6267 305.326 23.4453 305.326 23.232V8.16C305.326 7.92533 305.4 7.73333 305.549 7.584C305.699 7.43467 305.891 7.36 306.126 7.36H309.902C310.115 7.36 310.296 7.43467 310.446 7.584C310.616 7.73333 310.702 7.92533 310.702 8.16V19.84L309.262 19.136L317.166 7.872C317.272 7.72267 317.4 7.60533 317.55 7.52C317.699 7.41333 317.87 7.36 318.062 7.36H321.486C321.699 7.36 321.88 7.43467 322.03 7.584C322.179 7.73333 322.253 7.91467 322.253 8.128V23.2C322.253 23.4347 322.179 23.6267 322.03 23.776C321.88 23.9253 321.688 24 321.454 24H317.678C317.443 24 317.251 23.9253 317.102 23.776C316.952 23.6267 316.878 23.4347 316.878 23.2V11.872L318.35 12.16L310.382 23.488C310.296 23.6373 310.179 23.7653 310.03 23.872C309.88 23.9573 309.699 24 309.486 24H306.094ZM333.38 24.32C331.801 24.32 330.404 24.032 329.188 23.456C327.972 22.88 327.001 22.048 326.276 20.96C325.572 19.8507 325.188 18.528 325.124 16.992C325.102 16.6507 325.092 16.224 325.092 15.712C325.092 15.1787 325.102 14.7413 325.124 14.4C325.188 12.8427 325.572 11.52 326.276 10.432C326.98 9.32267 327.94 8.48 329.156 7.904C330.393 7.328 331.801 7.04 333.38 7.04C334.852 7.04 336.11 7.25333 337.156 7.68C338.201 8.08533 339.054 8.59733 339.716 9.216C340.377 9.83467 340.868 10.4747 341.188 11.136C341.529 11.776 341.71 12.3413 341.732 12.832C341.753 13.0453 341.678 13.2373 341.508 13.408C341.337 13.5573 341.145 13.632 340.932 13.632H336.868C336.633 13.632 336.452 13.5787 336.324 13.472C336.196 13.3653 336.078 13.2053 335.972 12.992C335.716 12.3307 335.385 11.8613 334.98 11.584C334.596 11.3067 334.094 11.168 333.476 11.168C332.622 11.168 331.961 11.4453 331.492 12C331.044 12.5547 330.798 13.408 330.756 14.56C330.734 15.4133 330.734 16.1707 330.756 16.832C330.798 18.0053 331.044 18.8587 331.492 19.392C331.961 19.9253 332.622 20.192 333.476 20.192C334.137 20.192 334.66 20.0533 335.044 19.776C335.428 19.4987 335.737 19.0293 335.972 18.368C336.078 18.1547 336.196 17.9947 336.324 17.888C336.452 17.7813 336.633 17.728 336.868 17.728H340.932C341.145 17.728 341.337 17.8133 341.508 17.984C341.678 18.1333 341.753 18.3147 341.732 18.528C341.71 18.8907 341.604 19.3173 341.412 19.808C341.22 20.2773 340.921 20.7787 340.516 21.312C340.11 21.8453 339.577 22.3467 338.916 22.816C338.276 23.264 337.497 23.6267 336.58 23.904C335.662 24.1813 334.596 24.32 333.38 24.32ZM349.631 24C349.417 24 349.225 23.9253 349.055 23.776C348.905 23.6267 348.831 23.4347 348.831 23.2V11.552H343.967C343.753 11.552 343.561 11.4773 343.391 11.328C343.241 11.1787 343.167 10.9867 343.167 10.752V8.16C343.167 7.92533 343.241 7.73333 343.391 7.584C343.561 7.43467 343.753 7.36 343.967 7.36H359.007C359.22 7.36 359.401 7.43467 359.551 7.584C359.721 7.73333 359.807 7.92533 359.807 8.16V10.752C359.807 10.9867 359.721 11.1787 359.551 11.328C359.401 11.4773 359.22 11.552 359.007 11.552H354.143V23.2C354.143 23.4347 354.068 23.6267 353.919 23.776C353.769 23.9253 353.577 24 353.343 24H349.631ZM362.938 30.08C362.703 30.08 362.511 30.0053 362.362 29.856C362.213 29.7067 362.138 29.5147 362.138 29.28V8.16C362.138 7.92533 362.213 7.73333 362.362 7.584C362.511 7.43467 362.703 7.36 362.938 7.36H366.554C366.767 7.36 366.949 7.43467 367.098 7.584C367.269 7.73333 367.354 7.92533 367.354 8.16V9.344C367.845 8.68267 368.495 8.13867 369.306 7.712C370.117 7.264 371.119 7.04 372.314 7.04C373.381 7.04 374.319 7.21067 375.13 7.552C375.941 7.872 376.634 8.352 377.21 8.992C377.786 9.632 378.234 10.4107 378.554 11.328C378.895 12.2453 379.087 13.3013 379.13 14.496C379.151 14.9227 379.162 15.3173 379.162 15.68C379.162 16.0427 379.151 16.4373 379.13 16.864C379.087 18.016 378.906 19.0507 378.586 19.968C378.266 20.8853 377.818 21.664 377.242 22.304C376.666 22.944 375.962 23.4453 375.13 23.808C374.319 24.1493 373.381 24.32 372.314 24.32C371.269 24.32 370.351 24.1387 369.562 23.776C368.794 23.392 368.154 22.8587 367.642 22.176V29.28C367.642 29.5147 367.567 29.7067 367.418 29.856C367.269 30.0053 367.077 30.08 366.842 30.08H362.938ZM370.586 20.032C371.311 20.032 371.877 19.8827 372.282 19.584C372.687 19.2853 372.975 18.88 373.146 18.368C373.338 17.856 373.455 17.2907 373.498 16.672C373.541 16.0107 373.541 15.3493 373.498 14.688C373.455 14.0693 373.338 13.504 373.146 12.992C372.975 12.48 372.687 12.0747 372.282 11.776C371.877 11.4773 371.311 11.328 370.586 11.328C369.882 11.328 369.317 11.488 368.89 11.808C368.463 12.1067 368.154 12.5013 367.962 12.992C367.77 13.4827 367.663 14.016 367.642 14.592C367.621 14.9973 367.61 15.392 367.61 15.776C367.61 16.16 367.621 16.5653 367.642 16.992C367.663 17.5253 367.781 18.0267 367.994 18.496C368.207 18.944 368.527 19.3173 368.954 19.616C369.381 19.8933 369.925 20.032 370.586 20.032ZM383.094 24C382.88 24 382.699 23.9253 382.549 23.776C382.4 23.6267 382.326 23.4453 382.326 23.232V8.16C382.326 7.92533 382.4 7.73333 382.549 7.584C382.699 7.43467 382.891 7.36 383.126 7.36H386.902C387.115 7.36 387.296 7.43467 387.446 7.584C387.616 7.73333 387.702 7.92533 387.702 8.16V19.84L386.262 19.136L394.166 7.872C394.272 7.72267 394.4 7.60533 394.55 7.52C394.699 7.41333 394.87 7.36 395.062 7.36H398.486C398.699 7.36 398.88 7.43467 399.03 7.584C399.179 7.73333 399.253 7.91467 399.253 8.128V23.2C399.253 23.4347 399.179 23.6267 399.03 23.776C398.88 23.9253 398.688 24 398.454 24H394.678C394.443 24 394.251 23.9253 394.102 23.776C393.952 23.6267 393.878 23.4347 393.878 23.2V11.872L395.35 12.16L387.382 23.488C387.296 23.6373 387.179 23.7653 387.03 23.872C386.88 23.9573 386.699 24 386.486 24H383.094ZM403.532 30.08C403.297 30.08 403.105 30.0053 402.956 29.856C402.806 29.7067 402.732 29.5147 402.732 29.28V8.16C402.732 7.92533 402.806 7.73333 402.956 7.584C403.105 7.43467 403.297 7.36 403.532 7.36H407.148C407.361 7.36 407.542 7.43467 407.692 7.584C407.862 7.73333 407.948 7.92533 407.948 8.16V9.344C408.438 8.68267 409.089 8.13867 409.9 7.712C410.71 7.264 411.713 7.04 412.908 7.04C413.974 7.04 414.913 7.21067 415.724 7.552C416.534 7.872 417.228 8.352 417.804 8.992C418.38 9.632 418.828 10.4107 419.148 11.328C419.489 12.2453 419.681 13.3013 419.724 14.496C419.745 14.9227 419.756 15.3173 419.756 15.68C419.756 16.0427 419.745 16.4373 419.724 16.864C419.681 18.016 419.5 19.0507 419.18 19.968C418.86 20.8853 418.412 21.664 417.836 22.304C417.26 22.944 416.556 23.4453 415.724 23.808C414.913 24.1493 413.974 24.32 412.908 24.32C411.862 24.32 410.945 24.1387 410.156 23.776C409.388 23.392 408.748 22.8587 408.236 22.176V29.28C408.236 29.5147 408.161 29.7067 408.012 29.856C407.862 30.0053 407.67 30.08 407.436 30.08H403.532ZM411.18 20.032C411.905 20.032 412.47 19.8827 412.876 19.584C413.281 19.2853 413.569 18.88 413.74 18.368C413.932 17.856 414.049 17.2907 414.092 16.672C414.134 16.0107 414.134 15.3493 414.092 14.688C414.049 14.0693 413.932 13.504 413.74 12.992C413.569 12.48 413.281 12.0747 412.876 11.776C412.47 11.4773 411.905 11.328 411.18 11.328C410.476 11.328 409.91 11.488 409.484 11.808C409.057 12.1067 408.748 12.5013 408.556 12.992C408.364 13.4827 408.257 14.016 408.236 14.592C408.214 14.9973 408.204 15.392 408.204 15.776C408.204 16.16 408.214 16.5653 408.236 16.992C408.257 17.5253 408.374 18.0267 408.588 18.496C408.801 18.944 409.121 19.3173 409.548 19.616C409.974 19.8933 410.518 20.032 411.18 20.032ZM423.832 30.112C423.597 30.112 423.394 30.0267 423.224 29.856C423.074 29.7067 423 29.5253 423 29.312V26.72C423 26.4853 423.074 26.2933 423.224 26.144C423.394 25.9947 423.597 25.92 423.832 25.92H424.92C425.325 25.92 425.656 25.8453 425.912 25.696C426.168 25.5467 426.392 25.3013 426.584 24.96C426.797 24.64 427.021 24.192 427.256 23.616L433.656 8.032C433.72 7.84 433.826 7.68 433.976 7.552C434.125 7.424 434.338 7.36 434.616 7.36H438.04C438.232 7.36 438.392 7.43467 438.52 7.584C438.669 7.712 438.744 7.86133 438.744 8.032C438.744 8.07467 438.733 8.13867 438.712 8.224C438.712 8.288 438.69 8.36267 438.648 8.448L432.568 23.104C432.141 24.1493 431.693 25.0987 431.224 25.952C430.776 26.8053 430.285 27.5413 429.752 28.16C429.218 28.8 428.589 29.28 427.864 29.6C427.16 29.9413 426.338 30.112 425.4 30.112H423.832ZM427.608 23.648L421.048 8.448C420.984 8.29867 420.952 8.17067 420.952 8.064C420.994 7.872 421.08 7.712 421.208 7.584C421.336 7.43467 421.506 7.36 421.72 7.36H425.304C425.581 7.36 425.784 7.43467 425.912 7.584C426.061 7.712 426.168 7.86133 426.232 8.032L430.808 19.744L427.608 23.648ZM441.969 24C441.755 24 441.574 23.9253 441.424 23.776C441.275 23.6267 441.201 23.4453 441.201 23.232V8.16C441.201 7.92533 441.275 7.73333 441.424 7.584C441.574 7.43467 441.766 7.36 442.001 7.36H445.777C445.99 7.36 446.171 7.43467 446.321 7.584C446.491 7.73333 446.577 7.92533 446.577 8.16V19.84L445.137 19.136L453.041 7.872C453.147 7.72267 453.275 7.60533 453.425 7.52C453.574 7.41333 453.745 7.36 453.937 7.36H457.361C457.574 7.36 457.755 7.43467 457.905 7.584C458.054 7.73333 458.128 7.91467 458.128 8.128V23.2C458.128 23.4347 458.054 23.6267 457.905 23.776C457.755 23.9253 457.563 24 457.329 24H453.553C453.318 24 453.126 23.9253 452.977 23.776C452.827 23.6267 452.753 23.4347 452.753 23.2V11.872L454.225 12.16L446.257 23.488C446.171 23.6373 446.054 23.7653 445.905 23.872C445.755 23.9573 445.574 24 445.361 24H441.969ZM449.905 5.184C448.582 5.184 447.505 4.98133 446.673 4.576C445.841 4.17067 445.233 3.616 444.849 2.912C444.486 2.208 444.305 1.44 444.305 0.608C444.305 0.437333 444.347 0.298666 444.433 0.191999C444.539 0.0639985 444.699 -1.90735e-06 444.913 -1.90735e-06H447.473C447.665 -1.90735e-06 447.814 0.0639985 447.921 0.191999C448.027 0.298666 448.081 0.437333 448.081 0.608C448.081 1.056 448.198 1.45067 448.433 1.792C448.689 2.13333 449.179 2.304 449.905 2.304C450.651 2.304 451.142 2.13333 451.377 1.792C451.633 1.45067 451.761 1.056 451.761 0.608C451.761 0.437333 451.814 0.298666 451.921 0.191999C452.027 0.0639985 452.177 -1.90735e-06 452.369 -1.90735e-06H454.929C455.121 -1.90735e-06 455.27 0.0639985 455.377 0.191999C455.483 0.298666 455.537 0.437333 455.537 0.608C455.537 1.44 455.345 2.208 454.961 2.912C454.598 3.616 454.001 4.17067 453.169 4.576C452.337 4.98133 451.249 5.184 449.905 5.184ZM466.631 24C466.417 24 466.225 23.9253 466.055 23.776C465.905 23.6267 465.831 23.4347 465.831 23.2V11.552H460.967C460.753 11.552 460.561 11.4773 460.391 11.328C460.241 11.1787 460.167 10.9867 460.167 10.752V8.16C460.167 7.92533 460.241 7.73333 460.391 7.584C460.561 7.43467 460.753 7.36 460.967 7.36H476.007C476.22 7.36 476.401 7.43467 476.551 7.584C476.721 7.73333 476.807 7.92533 476.807 8.16V10.752C476.807 10.9867 476.721 11.1787 476.551 11.328C476.401 11.4773 476.22 11.552 476.007 11.552H471.143V23.2C471.143 23.4347 471.068 23.6267 470.919 23.776C470.769 23.9253 470.577 24 470.343 24H466.631ZM486.818 24.32C484.301 24.32 482.295 23.6373 480.802 22.272C479.309 20.9067 478.53 18.88 478.466 16.192C478.466 16.0427 478.466 15.8507 478.466 15.616C478.466 15.3813 478.466 15.2 478.466 15.072C478.53 13.3867 478.903 11.9467 479.586 10.752C480.29 9.536 481.25 8.61867 482.466 8C483.703 7.36 485.143 7.04 486.786 7.04C488.663 7.04 490.21 7.41333 491.426 8.16C492.663 8.90667 493.591 9.92 494.21 11.2C494.829 12.48 495.138 13.9413 495.138 15.584V16.352C495.138 16.5867 495.053 16.7787 494.882 16.928C494.733 17.0773 494.551 17.152 494.338 17.152H484.098C484.098 17.1733 484.098 17.2053 484.098 17.248C484.098 17.2907 484.098 17.3333 484.098 17.376C484.119 17.9947 484.226 18.56 484.418 19.072C484.61 19.584 484.909 19.9893 485.314 20.288C485.719 20.5867 486.21 20.736 486.786 20.736C487.213 20.736 487.565 20.672 487.842 20.544C488.141 20.3947 488.386 20.2347 488.578 20.064C488.77 19.872 488.919 19.712 489.026 19.584C489.218 19.3707 489.367 19.2427 489.474 19.2C489.602 19.136 489.794 19.104 490.05 19.104H494.018C494.231 19.104 494.402 19.168 494.53 19.296C494.679 19.4027 494.743 19.5627 494.722 19.776C494.701 20.1387 494.519 20.576 494.178 21.088C493.837 21.6 493.335 22.112 492.674 22.624C492.034 23.1147 491.223 23.52 490.242 23.84C489.261 24.16 488.119 24.32 486.818 24.32ZM484.098 13.984H489.506V13.92C489.506 13.2373 489.399 12.64 489.186 12.128C488.994 11.616 488.685 11.2213 488.258 10.944C487.853 10.6667 487.362 10.528 486.786 10.528C486.21 10.528 485.719 10.6667 485.314 10.944C484.93 11.2213 484.631 11.616 484.418 12.128C484.205 12.64 484.098 13.2373 484.098 13.92V13.984ZM505.786 24.32C504.207 24.32 502.81 24.032 501.594 23.456C500.378 22.88 499.407 22.048 498.682 20.96C497.978 19.8507 497.594 18.528 497.53 16.992C497.509 16.6507 497.498 16.224 497.498 15.712C497.498 15.1787 497.509 14.7413 497.53 14.4C497.594 12.8427 497.978 11.52 498.682 10.432C499.386 9.32267 500.346 8.48 501.562 7.904C502.799 7.328 504.207 7.04 505.786 7.04C507.258 7.04 508.517 7.25333 509.562 7.68C510.607 8.08533 511.461 8.59733 512.122 9.216C512.783 9.83467 513.274 10.4747 513.594 11.136C513.935 11.776 514.117 12.3413 514.138 12.832C514.159 13.0453 514.085 13.2373 513.914 13.408C513.743 13.5573 513.551 13.632 513.338 13.632H509.274C509.039 13.632 508.858 13.5787 508.73 13.472C508.602 13.3653 508.485 13.2053 508.378 12.992C508.122 12.3307 507.791 11.8613 507.386 11.584C507.002 11.3067 506.501 11.168 505.882 11.168C505.029 11.168 504.367 11.4453 503.898 12C503.45 12.5547 503.205 13.408 503.162 14.56C503.141 15.4133 503.141 16.1707 503.162 16.832C503.205 18.0053 503.45 18.8587 503.898 19.392C504.367 19.9253 505.029 20.192 505.882 20.192C506.543 20.192 507.066 20.0533 507.45 19.776C507.834 19.4987 508.143 19.0293 508.378 18.368C508.485 18.1547 508.602 17.9947 508.73 17.888C508.858 17.7813 509.039 17.728 509.274 17.728H513.338C513.551 17.728 513.743 17.8133 513.914 17.984C514.085 18.1333 514.159 18.3147 514.138 18.528C514.117 18.8907 514.01 19.3173 513.818 19.808C513.626 20.2773 513.327 20.7787 512.922 21.312C512.517 21.8453 511.983 22.3467 511.322 22.816C510.682 23.264 509.903 23.6267 508.986 23.904C508.069 24.1813 507.002 24.32 505.786 24.32ZM517.813 24C517.578 24 517.386 23.9253 517.237 23.776C517.088 23.6267 517.013 23.4347 517.013 23.2V8.16C517.013 7.92533 517.088 7.73333 517.237 7.584C517.386 7.43467 517.578 7.36 517.813 7.36H521.589C521.824 7.36 522.016 7.43467 522.165 7.584C522.336 7.73333 522.421 7.92533 522.421 8.16V12.48H525.461C527.594 12.48 529.248 13.0027 530.421 14.048C531.594 15.072 532.181 16.4907 532.181 18.304C532.181 20.16 531.573 21.5787 530.357 22.56C529.141 23.52 527.445 24 525.269 24H517.813ZM522.293 20.32H524.981C525.813 20.32 526.421 20.1707 526.805 19.872C527.189 19.552 527.381 19.0293 527.381 18.304C527.381 17.5787 527.189 17.0347 526.805 16.672C526.421 16.3093 525.813 16.128 524.981 16.128H522.293V20.32Z" fill="white"/>
</svg>
