<svg width="383" height="19" viewBox="0 0 383 19" fill="none" xmlns="http://www.w3.org/2000/svg">
<path d="M1.2 15C1.05333 15 0.94 14.96 0.86 14.88C0.78 14.7867 0.74 14.6733 0.74 14.54V1.48C0.74 1.33333 0.78 1.22 0.86 1.14C0.94 1.04667 1.05333 0.999999 1.2 0.999999H2.22C2.36667 0.999999 2.48 1.04667 2.56 1.14C2.65333 1.22 2.7 1.33333 2.7 1.48V7H9.58V1.48C9.58 1.33333 9.62 1.22 9.7 1.14C9.79333 1.04667 9.90667 0.999999 10.04 0.999999H11.06C11.2067 0.999999 11.32 1.04667 11.4 1.14C11.4933 1.22 11.54 1.33333 11.54 1.48V14.54C11.54 14.6733 11.4933 14.7867 11.4 14.88C11.32 14.96 11.2067 15 11.06 15H10.04C9.90667 15 9.79333 14.96 9.7 14.88C9.62 14.7867 9.58 14.6733 9.58 14.54V8.8H2.7V14.54C2.7 14.6733 2.65333 14.7867 2.56 14.88C2.48 14.96 2.36667 15 2.22 15H1.2ZM18.8778 15.2C17.5045 15.2 16.4111 14.78 15.5978 13.94C14.7845 13.0867 14.3378 11.9267 14.2578 10.46C14.2445 10.2867 14.2378 10.0667 14.2378 9.8C14.2378 9.52 14.2445 9.29333 14.2578 9.12C14.3111 8.17333 14.5311 7.34667 14.9178 6.64C15.3045 5.92 15.8311 5.36667 16.4978 4.98C17.1778 4.59333 17.9711 4.4 18.8778 4.4C19.8911 4.4 20.7378 4.61333 21.4178 5.04C22.1111 5.46667 22.6378 6.07333 22.9978 6.86C23.3578 7.64667 23.5378 8.56667 23.5378 9.62V9.96C23.5378 10.1067 23.4911 10.22 23.3978 10.3C23.3178 10.38 23.2111 10.42 23.0778 10.42H16.1578C16.1578 10.4333 16.1578 10.46 16.1578 10.5C16.1578 10.54 16.1578 10.5733 16.1578 10.6C16.1845 11.1467 16.3045 11.66 16.5178 12.14C16.7311 12.6067 17.0378 12.9867 17.4378 13.28C17.8378 13.5733 18.3178 13.72 18.8778 13.72C19.3578 13.72 19.7578 13.6467 20.0778 13.5C20.3978 13.3533 20.6578 13.1933 20.8578 13.02C21.0578 12.8333 21.1911 12.6933 21.2578 12.6C21.3778 12.4267 21.4711 12.3267 21.5378 12.3C21.6045 12.26 21.7111 12.24 21.8578 12.24H22.8178C22.9511 12.24 23.0578 12.28 23.1378 12.36C23.2311 12.4267 23.2711 12.5267 23.2578 12.66C23.2445 12.86 23.1378 13.1067 22.9378 13.4C22.7378 13.68 22.4511 13.96 22.0778 14.24C21.7045 14.52 21.2511 14.7533 20.7178 14.94C20.1845 15.1133 19.5711 15.2 18.8778 15.2ZM16.1578 9.04H21.6378V8.98C21.6378 8.38 21.5245 7.84667 21.2978 7.38C21.0845 6.91333 20.7711 6.54667 20.3578 6.28C19.9445 6 19.4511 5.86 18.8778 5.86C18.3045 5.86 17.8111 6 17.3978 6.28C16.9978 6.54667 16.6911 6.91333 16.4778 7.38C16.2645 7.84667 16.1578 8.38 16.1578 8.98V9.04ZM29.1092 15C28.9759 15 28.8626 14.96 28.7692 14.88C28.6892 14.7867 28.6492 14.6733 28.6492 14.54V6.2H25.1692C25.0359 6.2 24.9226 6.16 24.8292 6.08C24.7492 5.98667 24.7092 5.87333 24.7092 5.74V5.06C24.7092 4.92667 24.7492 4.82 24.8292 4.74C24.9226 4.64667 25.0359 4.6 25.1692 4.6H33.9692C34.1026 4.6 34.2092 4.64667 34.2892 4.74C34.3826 4.82 34.4292 4.92667 34.4292 5.06V5.74C34.4292 5.87333 34.3826 5.98667 34.2892 6.08C34.2092 6.16 34.1026 6.2 33.9692 6.2H30.4892V14.54C30.4892 14.6733 30.4492 14.7867 30.3692 14.88C30.2892 14.96 30.1759 15 30.0292 15H29.1092ZM43.9659 15.2C43.2993 15.2 42.6926 15.0667 42.1459 14.8C41.5993 14.5333 41.1593 14.1733 40.8259 13.72C40.4926 13.2667 40.3259 12.7533 40.3259 12.18C40.3259 11.26 40.6993 10.5267 41.4459 9.98C42.1926 9.43333 43.1659 9.07333 44.3659 8.9L47.3459 8.48V7.9C47.3459 7.26 47.1593 6.76 46.7859 6.4C46.4259 6.04 45.8326 5.86 45.0059 5.86C44.4059 5.86 43.9193 5.98 43.5459 6.22C43.1859 6.46 42.9326 6.76667 42.7859 7.14C42.7059 7.34 42.5659 7.44 42.3659 7.44H41.4659C41.3193 7.44 41.2059 7.4 41.1259 7.32C41.0593 7.22667 41.0259 7.12 41.0259 7C41.0259 6.8 41.0993 6.55333 41.2459 6.26C41.4059 5.96667 41.6459 5.68 41.9659 5.4C42.2859 5.12 42.6926 4.88667 43.1859 4.7C43.6926 4.5 44.3059 4.4 45.0259 4.4C45.8259 4.4 46.4993 4.50667 47.0459 4.72C47.5926 4.92 48.0193 5.19333 48.3259 5.54C48.6459 5.88667 48.8726 6.28 49.0059 6.72C49.1526 7.16 49.2259 7.60667 49.2259 8.06V14.54C49.2259 14.6733 49.1793 14.7867 49.0859 14.88C49.0059 14.96 48.8993 15 48.7659 15H47.8459C47.6993 15 47.5859 14.96 47.5059 14.88C47.4259 14.7867 47.3859 14.6733 47.3859 14.54V13.68C47.2126 13.92 46.9793 14.16 46.6859 14.4C46.3926 14.6267 46.0259 14.82 45.5859 14.98C45.1459 15.1267 44.6059 15.2 43.9659 15.2ZM44.3859 13.7C44.9326 13.7 45.4326 13.5867 45.8859 13.36C46.3393 13.12 46.6926 12.7533 46.9459 12.26C47.2126 11.7667 47.3459 11.1467 47.3459 10.4V9.84L45.0259 10.18C44.0793 10.3133 43.3659 10.54 42.8859 10.86C42.4059 11.1667 42.1659 11.56 42.1659 12.04C42.1659 12.4133 42.2726 12.7267 42.4859 12.98C42.7126 13.22 42.9926 13.4 43.3259 13.52C43.6726 13.64 44.0259 13.7 44.3859 13.7ZM52.5611 15C52.4278 15 52.3144 14.96 52.2211 14.88C52.1411 14.7867 52.1011 14.6733 52.1011 14.54V5.06C52.1011 4.92667 52.1411 4.82 52.2211 4.74C52.3144 4.64667 52.4278 4.6 52.5611 4.6H53.5011C53.6344 4.6 53.7411 4.64667 53.8211 4.74C53.9144 4.82 53.9611 4.92667 53.9611 5.06V8.9H55.7811L58.4811 4.9C58.5478 4.80667 58.6211 4.73333 58.7011 4.68C58.7811 4.62667 58.8878 4.6 59.0211 4.6H60.0611C60.1811 4.6 60.2811 4.62667 60.3611 4.68C60.4411 4.73333 60.4811 4.81333 60.4811 4.92C60.4811 4.94667 60.4678 4.98667 60.4411 5.04C60.4278 5.08 60.4078 5.12 60.3811 5.16L57.3811 9.58L60.7811 14.42C60.8478 14.5 60.8811 14.5867 60.8811 14.68C60.8811 14.7867 60.8411 14.8667 60.7611 14.92C60.6944 14.9733 60.6011 15 60.4811 15H59.2611C59.1411 15 59.0411 14.9733 58.9611 14.92C58.8811 14.8667 58.8078 14.7933 58.7411 14.7L55.8011 10.52H53.9611V14.54C53.9611 14.6733 53.9144 14.7867 53.8211 14.88C53.7411 14.96 53.6344 15 53.5011 15H52.5611ZM63.2838 15C63.1504 15 63.0371 14.96 62.9438 14.88C62.8638 14.7867 62.8238 14.6733 62.8238 14.54V5.06C62.8238 4.92667 62.8638 4.82 62.9438 4.74C63.0371 4.64667 63.1504 4.6 63.2838 4.6H64.2238C64.3571 4.6 64.4638 4.64667 64.5438 4.74C64.6371 4.82 64.6838 4.92667 64.6838 5.06V8.9H66.5038L69.2038 4.9C69.2704 4.80667 69.3438 4.73333 69.4238 4.68C69.5038 4.62667 69.6104 4.6 69.7438 4.6H70.7838C70.9038 4.6 71.0038 4.62667 71.0838 4.68C71.1638 4.73333 71.2038 4.81333 71.2038 4.92C71.2038 4.94667 71.1904 4.98667 71.1638 5.04C71.1504 5.08 71.1304 5.12 71.1038 5.16L68.1038 9.58L71.5038 14.42C71.5704 14.5 71.6038 14.5867 71.6038 14.68C71.6038 14.7867 71.5638 14.8667 71.4838 14.92C71.4171 14.9733 71.3238 15 71.2038 15H69.9838C69.8638 15 69.7638 14.9733 69.6838 14.92C69.6038 14.8667 69.5304 14.7933 69.4638 14.7L66.5238 10.52H64.6838V14.54C64.6838 14.6733 64.6371 14.7867 64.5438 14.88C64.4638 14.96 64.3571 15 64.2238 15H63.2838ZM76.4464 15.2C75.7797 15.2 75.1731 15.0667 74.6264 14.8C74.0797 14.5333 73.6397 14.1733 73.3064 13.72C72.9731 13.2667 72.8064 12.7533 72.8064 12.18C72.8064 11.26 73.1797 10.5267 73.9264 9.98C74.6731 9.43333 75.6464 9.07333 76.8464 8.9L79.8264 8.48V7.9C79.8264 7.26 79.6397 6.76 79.2664 6.4C78.9064 6.04 78.3131 5.86 77.4864 5.86C76.8864 5.86 76.3997 5.98 76.0264 6.22C75.6664 6.46 75.4131 6.76667 75.2664 7.14C75.1864 7.34 75.0464 7.44 74.8464 7.44H73.9464C73.7997 7.44 73.6864 7.4 73.6064 7.32C73.5397 7.22667 73.5064 7.12 73.5064 7C73.5064 6.8 73.5797 6.55333 73.7264 6.26C73.8864 5.96667 74.1264 5.68 74.4464 5.4C74.7664 5.12 75.1731 4.88667 75.6664 4.7C76.1731 4.5 76.7864 4.4 77.5064 4.4C78.3064 4.4 78.9797 4.50667 79.5264 4.72C80.0731 4.92 80.4997 5.19333 80.8064 5.54C81.1264 5.88667 81.3531 6.28 81.4864 6.72C81.6331 7.16 81.7064 7.60667 81.7064 8.06V14.54C81.7064 14.6733 81.6597 14.7867 81.5664 14.88C81.4864 14.96 81.3797 15 81.2464 15H80.3264C80.1797 15 80.0664 14.96 79.9864 14.88C79.9064 14.7867 79.8664 14.6733 79.8664 14.54V13.68C79.6931 13.92 79.4597 14.16 79.1664 14.4C78.8731 14.6267 78.5064 14.82 78.0664 14.98C77.6264 15.1267 77.0864 15.2 76.4464 15.2ZM76.8664 13.7C77.4131 13.7 77.9131 13.5867 78.3664 13.36C78.8197 13.12 79.1731 12.7533 79.4264 12.26C79.6931 11.7667 79.8264 11.1467 79.8264 10.4V9.84L77.5064 10.18C76.5597 10.3133 75.8464 10.54 75.3664 10.86C74.8864 11.1667 74.6464 11.56 74.6464 12.04C74.6464 12.4133 74.7531 12.7267 74.9664 12.98C75.1931 13.22 75.4731 13.4 75.8064 13.52C76.1531 13.64 76.5064 13.7 76.8664 13.7ZM85.0616 18.8C84.9149 18.8 84.8016 18.7533 84.7216 18.66C84.6416 18.58 84.6016 18.4733 84.6016 18.34V17.66C84.6016 17.5267 84.6416 17.4133 84.7216 17.32C84.8016 17.24 84.9149 17.2 85.0616 17.2H85.5816C85.8882 17.2 86.1349 17.14 86.3216 17.02C86.5082 16.9 86.6749 16.6933 86.8216 16.4C86.9816 16.12 87.1682 15.7333 87.3816 15.24L91.7216 4.94C91.7616 4.83333 91.8149 4.75333 91.8816 4.7C91.9616 4.63333 92.0749 4.6 92.2216 4.6H93.1016C93.2216 4.6 93.3216 4.64 93.4016 4.72C93.4816 4.8 93.5216 4.89333 93.5216 5C93.5216 5.05333 93.5149 5.10667 93.5016 5.16C93.4882 5.2 93.4616 5.26667 93.4216 5.36L89.6216 14.36C89.4216 14.84 89.2016 15.34 88.9616 15.86C88.7349 16.38 88.4749 16.86 88.1816 17.3C87.9016 17.7533 87.5682 18.1133 87.1816 18.38C86.7949 18.66 86.3416 18.8 85.8216 18.8H85.0616ZM87.8416 14.7L83.8016 5.36C83.7349 5.2 83.7016 5.08667 83.7016 5.02C83.7149 4.9 83.7616 4.8 83.8416 4.72C83.9216 4.64 84.0149 4.6 84.1216 4.6H85.0616C85.2082 4.6 85.3149 4.63333 85.3816 4.7C85.4616 4.76667 85.5216 4.84667 85.5616 4.94L88.8816 12.88L87.8416 14.7ZM95.9986 15C95.8653 15 95.7519 14.96 95.6586 14.88C95.5786 14.7867 95.5386 14.6733 95.5386 14.54V5.06C95.5386 4.92667 95.5786 4.82 95.6586 4.74C95.7519 4.64667 95.8653 4.6 95.9986 4.6H96.9586C97.0919 4.6 97.1986 4.64667 97.2786 4.74C97.3586 4.82 97.3986 4.92667 97.3986 5.06V8.9H102.859V5.06C102.859 4.92667 102.899 4.82 102.979 4.74C103.072 4.64667 103.185 4.6 103.319 4.6H104.259C104.392 4.6 104.499 4.64667 104.579 4.74C104.672 4.82 104.719 4.92667 104.719 5.06V14.54C104.719 14.6733 104.672 14.7867 104.579 14.88C104.499 14.96 104.392 15 104.259 15H103.319C103.185 15 103.072 14.96 102.979 14.88C102.899 14.7867 102.859 14.6733 102.859 14.54V10.5H97.3986V14.54C97.3986 14.6733 97.3586 14.7867 97.2786 14.88C97.1986 14.96 97.0919 15 96.9586 15H95.9986ZM110.906 15C110.773 15 110.659 14.96 110.566 14.88C110.486 14.7867 110.446 14.6733 110.446 14.54V6.2H106.966C106.833 6.2 106.719 6.16 106.626 6.08C106.546 5.98667 106.506 5.87333 106.506 5.74V5.06C106.506 4.92667 106.546 4.82 106.626 4.74C106.719 4.64667 106.833 4.6 106.966 4.6H115.766C115.899 4.6 116.006 4.64667 116.086 4.74C116.179 4.82 116.226 4.92667 116.226 5.06V5.74C116.226 5.87333 116.179 5.98667 116.086 6.08C116.006 6.16 115.899 6.2 115.766 6.2H112.286V14.54C112.286 14.6733 112.246 14.7867 112.166 14.88C112.086 14.96 111.973 15 111.826 15H110.906ZM120.86 15.2C120.194 15.2 119.587 15.0667 119.04 14.8C118.494 14.5333 118.054 14.1733 117.72 13.72C117.387 13.2667 117.22 12.7533 117.22 12.18C117.22 11.26 117.594 10.5267 118.34 9.98C119.087 9.43333 120.06 9.07333 121.26 8.9L124.24 8.48V7.9C124.24 7.26 124.054 6.76 123.68 6.4C123.32 6.04 122.727 5.86 121.9 5.86C121.3 5.86 120.814 5.98 120.44 6.22C120.08 6.46 119.827 6.76667 119.68 7.14C119.6 7.34 119.46 7.44 119.26 7.44H118.36C118.214 7.44 118.1 7.4 118.02 7.32C117.954 7.22667 117.92 7.12 117.92 7C117.92 6.8 117.994 6.55333 118.14 6.26C118.3 5.96667 118.54 5.68 118.86 5.4C119.18 5.12 119.587 4.88667 120.08 4.7C120.587 4.5 121.2 4.4 121.92 4.4C122.72 4.4 123.394 4.50667 123.94 4.72C124.487 4.92 124.914 5.19333 125.22 5.54C125.54 5.88667 125.767 6.28 125.9 6.72C126.047 7.16 126.12 7.60667 126.12 8.06V14.54C126.12 14.6733 126.074 14.7867 125.98 14.88C125.9 14.96 125.794 15 125.66 15H124.74C124.594 15 124.48 14.96 124.4 14.88C124.32 14.7867 124.28 14.6733 124.28 14.54V13.68C124.107 13.92 123.874 14.16 123.58 14.4C123.287 14.6267 122.92 14.82 122.48 14.98C122.04 15.1267 121.5 15.2 120.86 15.2ZM121.28 13.7C121.827 13.7 122.327 13.5867 122.78 13.36C123.234 13.12 123.587 12.7533 123.84 12.26C124.107 11.7667 124.24 11.1467 124.24 10.4V9.84L121.92 10.18C120.974 10.3133 120.26 10.54 119.78 10.86C119.3 11.1667 119.06 11.56 119.06 12.04C119.06 12.4133 119.167 12.7267 119.38 12.98C119.607 13.22 119.887 13.4 120.22 13.52C120.567 13.64 120.92 13.7 121.28 13.7ZM132.376 11.72C132.256 11.72 132.156 11.6867 132.076 11.62C131.996 11.54 131.956 11.4333 131.956 11.3C131.956 11.1667 131.956 11.0333 131.956 10.9C131.956 10.7667 131.956 10.6333 131.956 10.5C131.982 9.92667 132.109 9.42 132.336 8.98C132.562 8.54 132.836 8.14 133.156 7.78C133.489 7.42 133.822 7.08 134.156 6.76C134.489 6.42667 134.769 6.09333 134.996 5.76C135.236 5.42667 135.382 5.07333 135.436 4.7C135.489 4.22 135.396 3.82 135.156 3.5C134.916 3.16667 134.589 2.91333 134.176 2.74C133.762 2.56667 133.336 2.48 132.896 2.48C132.189 2.48 131.582 2.66667 131.076 3.04C130.582 3.4 130.256 4.01333 130.096 4.88C130.056 5.04 129.989 5.15333 129.896 5.22C129.802 5.28667 129.696 5.32 129.576 5.32H128.616C128.496 5.32 128.389 5.28 128.296 5.2C128.216 5.12 128.176 5.01333 128.176 4.88C128.189 4.33333 128.309 3.81333 128.536 3.32C128.762 2.82667 129.082 2.39333 129.496 2.02C129.922 1.64667 130.422 1.35333 130.996 1.14C131.582 0.913333 132.236 0.799999 132.956 0.799999C133.769 0.799999 134.462 0.913333 135.036 1.14C135.622 1.35333 136.089 1.64667 136.436 2.02C136.796 2.38 137.056 2.78 137.216 3.22C137.376 3.66 137.442 4.1 137.416 4.54C137.376 5.07333 137.242 5.55333 137.016 5.98C136.789 6.39333 136.516 6.78 136.196 7.14C135.876 7.48667 135.549 7.83333 135.216 8.18C134.896 8.51333 134.616 8.86667 134.376 9.24C134.149 9.6 134.022 9.99333 133.996 10.42C133.982 10.5667 133.969 10.7133 133.956 10.86C133.956 10.9933 133.956 11.1267 133.956 11.26C133.929 11.4067 133.876 11.52 133.796 11.6C133.716 11.68 133.602 11.72 133.456 11.72H132.376ZM132.216 15C132.082 15 131.969 14.96 131.876 14.88C131.796 14.7867 131.756 14.6733 131.756 14.54V13.32C131.756 13.1867 131.796 13.08 131.876 13C131.969 12.9067 132.082 12.86 132.216 12.86H133.516C133.662 12.86 133.776 12.9067 133.856 13C133.949 13.08 133.996 13.1867 133.996 13.32V14.54C133.996 14.6733 133.949 14.7867 133.856 14.88C133.776 14.96 133.662 15 133.516 15H132.216ZM149.823 15.2C148.596 15.2 147.576 14.9733 146.763 14.52C145.963 14.0667 145.356 13.4333 144.943 12.62C144.53 11.8067 144.303 10.86 144.263 9.78C144.25 9.23333 144.243 8.64667 144.243 8.02C144.243 7.39333 144.25 6.79333 144.263 6.22C144.303 5.14 144.53 4.19333 144.943 3.38C145.356 2.56667 145.963 1.93333 146.763 1.48C147.576 1.02667 148.596 0.799999 149.823 0.799999C150.743 0.799999 151.55 0.926666 152.243 1.18C152.936 1.43333 153.51 1.77333 153.963 2.2C154.43 2.62667 154.783 3.10667 155.023 3.64C155.263 4.16 155.396 4.7 155.423 5.26C155.436 5.38 155.396 5.48 155.303 5.56C155.223 5.64 155.123 5.68 155.003 5.68H153.903C153.783 5.68 153.676 5.64667 153.583 5.58C153.503 5.51333 153.443 5.39333 153.403 5.22C153.176 4.18 152.75 3.46667 152.123 3.08C151.51 2.69333 150.736 2.5 149.803 2.5C148.736 2.5 147.89 2.80667 147.263 3.42C146.636 4.02 146.296 4.98667 146.243 6.32C146.203 7.41333 146.203 8.53333 146.243 9.68C146.296 11.0133 146.636 11.9867 147.263 12.6C147.89 13.2 148.736 13.5 149.803 13.5C150.736 13.5 151.51 13.3067 152.123 12.92C152.75 12.5333 153.176 11.82 153.403 10.78C153.443 10.6067 153.503 10.4867 153.583 10.42C153.676 10.3533 153.783 10.32 153.903 10.32H155.003C155.123 10.32 155.223 10.36 155.303 10.44C155.396 10.52 155.436 10.62 155.423 10.74C155.396 11.3 155.263 11.8467 155.023 12.38C154.783 12.9 154.43 13.3733 153.963 13.8C153.51 14.2267 152.936 14.5667 152.243 14.82C151.55 15.0733 150.743 15.2 149.823 15.2ZM162.103 15.2C161.09 15.2 160.243 15.0067 159.563 14.62C158.883 14.2333 158.363 13.7 158.003 13.02C157.643 12.3267 157.443 11.54 157.403 10.66C157.39 10.4333 157.383 10.1467 157.383 9.8C157.383 9.44 157.39 9.15333 157.403 8.94C157.443 8.04667 157.643 7.26 158.003 6.58C158.377 5.9 158.903 5.36667 159.583 4.98C160.263 4.59333 161.103 4.4 162.103 4.4C163.103 4.4 163.943 4.59333 164.623 4.98C165.303 5.36667 165.823 5.9 166.183 6.58C166.557 7.26 166.763 8.04667 166.803 8.94C166.817 9.15333 166.823 9.44 166.823 9.8C166.823 10.1467 166.817 10.4333 166.803 10.66C166.763 11.54 166.563 12.3267 166.203 13.02C165.843 13.7 165.323 14.2333 164.643 14.62C163.963 15.0067 163.117 15.2 162.103 15.2ZM162.103 13.66C162.93 13.66 163.59 13.4 164.083 12.88C164.577 12.3467 164.843 11.5733 164.883 10.56C164.897 10.36 164.903 10.1067 164.903 9.8C164.903 9.49333 164.897 9.24 164.883 9.04C164.843 8.02667 164.577 7.26 164.083 6.74C163.59 6.20667 162.93 5.94 162.103 5.94C161.277 5.94 160.61 6.20667 160.103 6.74C159.61 7.26 159.35 8.02667 159.323 9.04C159.31 9.24 159.303 9.49333 159.303 9.8C159.303 10.1067 159.31 10.36 159.323 10.56C159.35 11.5733 159.61 12.3467 160.103 12.88C160.61 13.4 161.277 13.66 162.103 13.66ZM172.948 15.2C172.161 15.2 171.494 15.1067 170.948 14.92C170.414 14.72 169.981 14.4733 169.648 14.18C169.328 13.8733 169.094 13.56 168.948 13.24C168.801 12.9067 168.721 12.6 168.708 12.32C168.708 12.2 168.748 12.1067 168.828 12.04C168.908 11.96 169.001 11.92 169.108 11.92H170.048C170.168 11.92 170.268 11.9533 170.348 12.02C170.428 12.0733 170.488 12.1733 170.528 12.32C170.688 12.8267 170.994 13.18 171.448 13.38C171.901 13.58 172.454 13.68 173.108 13.68C173.534 13.68 173.928 13.6267 174.288 13.52C174.648 13.4 174.928 13.2133 175.128 12.96C175.341 12.7067 175.448 12.3933 175.448 12.02C175.448 11.4733 175.288 11.06 174.968 10.78C174.661 10.5 174.181 10.36 173.528 10.36H172.428C172.294 10.36 172.188 10.32 172.108 10.24C172.028 10.16 171.988 10.0533 171.988 9.92V9.38C171.988 9.26 172.028 9.16 172.108 9.08C172.188 8.98667 172.294 8.94 172.428 8.94H173.408C173.954 8.94 174.374 8.83333 174.668 8.62C174.961 8.40667 175.108 8.06667 175.108 7.6C175.108 7.32 175.041 7.05333 174.908 6.8C174.774 6.54667 174.548 6.34 174.228 6.18C173.921 6.00667 173.494 5.92 172.948 5.92C172.174 5.92 171.628 6.05333 171.308 6.32C171.001 6.57333 170.781 6.95333 170.648 7.46C170.594 7.60667 170.528 7.70667 170.448 7.76C170.381 7.81333 170.281 7.84 170.148 7.84H169.248C169.128 7.84 169.028 7.80667 168.948 7.74C168.868 7.67333 168.828 7.58 168.828 7.46C168.841 7.06 168.928 6.68 169.088 6.32C169.261 5.96 169.514 5.63333 169.848 5.34C170.194 5.04667 170.621 4.82 171.128 4.66C171.648 4.48667 172.254 4.4 172.948 4.4C173.948 4.4 174.734 4.55333 175.308 4.86C175.894 5.16667 176.308 5.54667 176.548 6C176.801 6.44 176.928 6.88 176.928 7.32C176.928 7.84 176.841 8.27333 176.668 8.62C176.508 8.96667 176.188 9.26 175.708 9.5C176.308 9.72667 176.721 10.0667 176.948 10.52C177.174 10.9733 177.294 11.5 177.308 12.1C177.321 12.7933 177.134 13.3667 176.748 13.82C176.374 14.2733 175.861 14.62 175.208 14.86C174.554 15.0867 173.801 15.2 172.948 15.2ZM178.962 17.2C178.829 17.2 178.715 17.1533 178.622 17.06C178.542 16.98 178.502 16.8733 178.502 16.74V13.86C178.502 13.7267 178.542 13.62 178.622 13.54C178.715 13.4467 178.829 13.4 178.962 13.4H179.062C179.422 13.3867 179.729 13.1867 179.982 12.8C180.235 12.4 180.429 11.78 180.562 10.94C180.695 10.0867 180.762 8.98 180.762 7.62V5.06C180.762 4.92667 180.802 4.82 180.882 4.74C180.975 4.64667 181.089 4.6 181.222 4.6H187.602C187.735 4.6 187.842 4.64667 187.922 4.74C188.015 4.82 188.062 4.92667 188.062 5.06V13.36H189.002C189.149 13.36 189.262 13.4067 189.342 13.5C189.422 13.58 189.462 13.6867 189.462 13.82V16.74C189.462 16.8733 189.422 16.98 189.342 17.06C189.262 17.1533 189.149 17.2 189.002 17.2H188.062C187.929 17.2 187.815 17.1533 187.722 17.06C187.642 16.98 187.602 16.8733 187.602 16.74V15H180.362V16.74C180.362 16.8733 180.315 16.98 180.222 17.06C180.142 17.1533 180.035 17.2 179.902 17.2H178.962ZM181.442 13.4L186.202 13.36V6.2H182.582V7.84C182.582 9.25333 182.482 10.4133 182.282 11.32C182.082 12.2133 181.802 12.9067 181.442 13.4ZM194.454 15.2C193.788 15.2 193.181 15.0667 192.634 14.8C192.088 14.5333 191.648 14.1733 191.314 13.72C190.981 13.2667 190.814 12.7533 190.814 12.18C190.814 11.26 191.188 10.5267 191.934 9.98C192.681 9.43333 193.654 9.07333 194.854 8.9L197.834 8.48V7.9C197.834 7.26 197.648 6.76 197.274 6.4C196.914 6.04 196.321 5.86 195.494 5.86C194.894 5.86 194.408 5.98 194.034 6.22C193.674 6.46 193.421 6.76667 193.274 7.14C193.194 7.34 193.054 7.44 192.854 7.44H191.954C191.808 7.44 191.694 7.4 191.614 7.32C191.548 7.22667 191.514 7.12 191.514 7C191.514 6.8 191.588 6.55333 191.734 6.26C191.894 5.96667 192.134 5.68 192.454 5.4C192.774 5.12 193.181 4.88667 193.674 4.7C194.181 4.5 194.794 4.4 195.514 4.4C196.314 4.4 196.988 4.50667 197.534 4.72C198.081 4.92 198.508 5.19333 198.814 5.54C199.134 5.88667 199.361 6.28 199.494 6.72C199.641 7.16 199.714 7.60667 199.714 8.06V14.54C199.714 14.6733 199.668 14.7867 199.574 14.88C199.494 14.96 199.388 15 199.254 15H198.334C198.188 15 198.074 14.96 197.994 14.88C197.914 14.7867 197.874 14.6733 197.874 14.54V13.68C197.701 13.92 197.468 14.16 197.174 14.4C196.881 14.6267 196.514 14.82 196.074 14.98C195.634 15.1267 195.094 15.2 194.454 15.2ZM194.874 13.7C195.421 13.7 195.921 13.5867 196.374 13.36C196.828 13.12 197.181 12.7533 197.434 12.26C197.701 11.7667 197.834 11.1467 197.834 10.4V9.84L195.514 10.18C194.568 10.3133 193.854 10.54 193.374 10.86C192.894 11.1667 192.654 11.56 192.654 12.04C192.654 12.4133 192.761 12.7267 192.974 12.98C193.201 13.22 193.481 13.4 193.814 13.52C194.161 13.64 194.514 13.7 194.874 13.7ZM203.029 15C202.909 15 202.803 14.96 202.709 14.88C202.629 14.7867 202.589 14.6867 202.589 14.58V5.06C202.589 4.92667 202.629 4.82 202.709 4.74C202.803 4.64667 202.916 4.6 203.049 4.6H204.009C204.143 4.6 204.249 4.64667 204.329 4.74C204.409 4.82 204.449 4.92667 204.449 5.06V13.54L203.929 13L209.989 4.9C210.056 4.82 210.129 4.75333 210.209 4.7C210.289 4.63333 210.389 4.6 210.509 4.6H211.429C211.536 4.6 211.629 4.64 211.709 4.72C211.803 4.8 211.849 4.89333 211.849 5V14.54C211.849 14.6733 211.803 14.7867 211.709 14.88C211.629 14.96 211.523 15 211.389 15H210.449C210.303 15 210.189 14.96 210.109 14.88C210.029 14.7867 209.989 14.6733 209.989 14.54V6.56L210.549 6.54L204.449 14.7C204.396 14.7667 204.329 14.8333 204.249 14.9C204.169 14.9667 204.063 15 203.929 15H203.029ZM207.269 3.22C206.496 3.22 205.889 3.1 205.449 2.86C205.009 2.62 204.703 2.31333 204.529 1.94C204.356 1.55333 204.269 1.15333 204.269 0.739999C204.269 0.633333 204.296 0.546666 204.349 0.48C204.416 0.399999 204.516 0.359999 204.649 0.359999H205.329C205.449 0.359999 205.543 0.399999 205.609 0.48C205.676 0.546666 205.709 0.633333 205.709 0.739999C205.709 1.04667 205.809 1.33333 206.009 1.6C206.223 1.85333 206.643 1.98 207.269 1.98C207.909 1.98 208.329 1.85333 208.529 1.6C208.729 1.33333 208.829 1.04667 208.829 0.739999C208.829 0.633333 208.863 0.546666 208.929 0.48C208.996 0.399999 209.089 0.359999 209.209 0.359999H209.909C210.029 0.359999 210.123 0.399999 210.189 0.48C210.256 0.546666 210.289 0.633333 210.289 0.739999C210.289 1.15333 210.196 1.55333 210.009 1.94C209.836 2.31333 209.529 2.62 209.089 2.86C208.649 3.1 208.043 3.22 207.269 3.22ZM217.957 15C217.824 15 217.71 14.96 217.617 14.88C217.537 14.7867 217.497 14.6733 217.497 14.54V6.2H214.017C213.884 6.2 213.77 6.16 213.677 6.08C213.597 5.98667 213.557 5.87333 213.557 5.74V5.06C213.557 4.92667 213.597 4.82 213.677 4.74C213.77 4.64667 213.884 4.6 214.017 4.6H222.817C222.95 4.6 223.057 4.64667 223.137 4.74C223.23 4.82 223.277 4.92667 223.277 5.06V5.74C223.277 5.87333 223.23 5.98667 223.137 6.08C223.057 6.16 222.95 6.2 222.817 6.2H219.337V14.54C219.337 14.6733 219.297 14.7867 219.217 14.88C219.137 14.96 219.024 15 218.877 15H217.957ZM229.151 15.2C227.778 15.2 226.685 14.78 225.871 13.94C225.058 13.0867 224.611 11.9267 224.531 10.46C224.518 10.2867 224.511 10.0667 224.511 9.8C224.511 9.52 224.518 9.29333 224.531 9.12C224.585 8.17333 224.805 7.34667 225.191 6.64C225.578 5.92 226.105 5.36667 226.771 4.98C227.451 4.59333 228.245 4.4 229.151 4.4C230.165 4.4 231.011 4.61333 231.691 5.04C232.385 5.46667 232.911 6.07333 233.271 6.86C233.631 7.64667 233.811 8.56667 233.811 9.62V9.96C233.811 10.1067 233.765 10.22 233.671 10.3C233.591 10.38 233.485 10.42 233.351 10.42H226.431C226.431 10.4333 226.431 10.46 226.431 10.5C226.431 10.54 226.431 10.5733 226.431 10.6C226.458 11.1467 226.578 11.66 226.791 12.14C227.005 12.6067 227.311 12.9867 227.711 13.28C228.111 13.5733 228.591 13.72 229.151 13.72C229.631 13.72 230.031 13.6467 230.351 13.5C230.671 13.3533 230.931 13.1933 231.131 13.02C231.331 12.8333 231.465 12.6933 231.531 12.6C231.651 12.4267 231.745 12.3267 231.811 12.3C231.878 12.26 231.985 12.24 232.131 12.24H233.091C233.225 12.24 233.331 12.28 233.411 12.36C233.505 12.4267 233.545 12.5267 233.531 12.66C233.518 12.86 233.411 13.1067 233.211 13.4C233.011 13.68 232.725 13.96 232.351 14.24C231.978 14.52 231.525 14.7533 230.991 14.94C230.458 15.1133 229.845 15.2 229.151 15.2ZM226.431 9.04H231.911V8.98C231.911 8.38 231.798 7.84667 231.571 7.38C231.358 6.91333 231.045 6.54667 230.631 6.28C230.218 6 229.725 5.86 229.151 5.86C228.578 5.86 228.085 6 227.671 6.28C227.271 6.54667 226.965 6.91333 226.751 7.38C226.538 7.84667 226.431 8.38 226.431 8.98V9.04ZM241.565 15C241.432 15 241.318 14.96 241.225 14.88C241.145 14.7867 241.105 14.6733 241.105 14.54V5.06C241.105 4.92667 241.145 4.82 241.225 4.74C241.318 4.64667 241.432 4.6 241.565 4.6H242.525C242.658 4.6 242.765 4.64667 242.845 4.74C242.925 4.82 242.965 4.92667 242.965 5.06V8.9H248.425V5.06C248.425 4.92667 248.465 4.82 248.545 4.74C248.638 4.64667 248.752 4.6 248.885 4.6H249.825C249.958 4.6 250.065 4.64667 250.145 4.74C250.238 4.82 250.285 4.92667 250.285 5.06V14.54C250.285 14.6733 250.238 14.7867 250.145 14.88C250.065 14.96 249.958 15 249.825 15H248.885C248.752 15 248.638 14.96 248.545 14.88C248.465 14.7867 248.425 14.6733 248.425 14.54V10.5H242.965V14.54C242.965 14.6733 242.925 14.7867 242.845 14.88C242.765 14.96 242.658 15 242.525 15H241.565ZM257.553 15.2C256.539 15.2 255.693 15.0067 255.013 14.62C254.333 14.2333 253.813 13.7 253.453 13.02C253.093 12.3267 252.893 11.54 252.853 10.66C252.839 10.4333 252.833 10.1467 252.833 9.8C252.833 9.44 252.839 9.15333 252.853 8.94C252.893 8.04667 253.093 7.26 253.453 6.58C253.826 5.9 254.353 5.36667 255.033 4.98C255.713 4.59333 256.553 4.4 257.553 4.4C258.553 4.4 259.393 4.59333 260.073 4.98C260.753 5.36667 261.273 5.9 261.633 6.58C262.006 7.26 262.213 8.04667 262.253 8.94C262.266 9.15333 262.273 9.44 262.273 9.8C262.273 10.1467 262.266 10.4333 262.253 10.66C262.213 11.54 262.013 12.3267 261.653 13.02C261.293 13.7 260.773 14.2333 260.093 14.62C259.413 15.0067 258.566 15.2 257.553 15.2ZM257.553 13.66C258.379 13.66 259.039 13.4 259.533 12.88C260.026 12.3467 260.293 11.5733 260.333 10.56C260.346 10.36 260.353 10.1067 260.353 9.8C260.353 9.49333 260.346 9.24 260.333 9.04C260.293 8.02667 260.026 7.26 259.533 6.74C259.039 6.20667 258.379 5.94 257.553 5.94C256.726 5.94 256.059 6.20667 255.553 6.74C255.059 7.26 254.799 8.02667 254.773 9.04C254.759 9.24 254.752 9.49333 254.752 9.8C254.752 10.1067 254.759 10.36 254.773 10.56C254.799 11.5733 255.059 12.3467 255.553 12.88C256.059 13.4 256.726 13.66 257.553 13.66ZM265.237 15C265.104 15 264.99 14.96 264.897 14.88C264.817 14.7867 264.777 14.6733 264.777 14.54V5.06C264.777 4.92667 264.817 4.82 264.897 4.74C264.99 4.64667 265.104 4.6 265.237 4.6H269.397C270.65 4.6 271.59 4.85333 272.217 5.36C272.857 5.86667 273.177 6.54667 273.177 7.4C273.177 8 273.064 8.45333 272.837 8.76C272.61 9.06667 272.29 9.32667 271.877 9.54C272.384 9.75333 272.764 10.1 273.017 10.58C273.284 11.0467 273.417 11.5333 273.417 12.04C273.417 13 273.077 13.7333 272.397 14.24C271.717 14.7467 270.77 15 269.557 15H265.237ZM266.617 13.54H269.397C270.037 13.54 270.55 13.42 270.937 13.18C271.337 12.9267 271.537 12.5467 271.537 12.04C271.537 11.5067 271.357 11.12 270.997 10.88C270.637 10.6267 270.104 10.5 269.397 10.5H266.617V13.54ZM266.617 9.02H269.277C269.917 9.02 270.424 8.88 270.797 8.6C271.184 8.32 271.377 7.92667 271.377 7.42C271.377 6.9 271.184 6.54667 270.797 6.36C270.424 6.16 269.917 6.06 269.277 6.06H266.617V9.02ZM276.448 15C276.314 15 276.201 14.96 276.108 14.88C276.028 14.7867 275.988 14.6733 275.988 14.54V5.06C275.988 4.92667 276.028 4.82 276.108 4.74C276.201 4.64667 276.314 4.6 276.448 4.6H277.408C277.541 4.6 277.648 4.64667 277.728 4.74C277.821 4.82 277.868 4.92667 277.868 5.06V8H279.948C281.308 8 282.301 8.32 282.928 8.96C283.554 9.6 283.868 10.4667 283.868 11.56C283.868 12.7333 283.521 13.6 282.828 14.16C282.134 14.72 281.094 15 279.708 15H276.448ZM277.848 13.5H279.768C280.581 13.5 281.174 13.36 281.548 13.08C281.921 12.7867 282.108 12.28 282.108 11.56C282.108 10.8667 281.928 10.3533 281.568 10.02C281.208 9.67333 280.608 9.5 279.768 9.5H277.848V13.5ZM285.748 15C285.614 15 285.501 14.96 285.408 14.88C285.328 14.7867 285.288 14.6733 285.288 14.54V5.06C285.288 4.92667 285.328 4.82 285.408 4.74C285.501 4.64667 285.614 4.6 285.748 4.6H286.708C286.841 4.6 286.948 4.64667 287.028 4.74C287.121 4.82 287.168 4.92667 287.168 5.06V14.54C287.168 14.6733 287.121 14.7867 287.028 14.88C286.948 14.96 286.841 15 286.708 15H285.748ZM290.588 15C290.468 15 290.361 14.96 290.268 14.88C290.188 14.7867 290.148 14.6867 290.148 14.58V5.06C290.148 4.92667 290.188 4.82 290.268 4.74C290.361 4.64667 290.475 4.6 290.608 4.6H291.568C291.701 4.6 291.808 4.64667 291.888 4.74C291.968 4.82 292.008 4.92667 292.008 5.06V13.54L291.488 13L297.548 4.9C297.615 4.82 297.688 4.75333 297.768 4.7C297.848 4.63333 297.948 4.6 298.068 4.6H298.988C299.095 4.6 299.188 4.64 299.268 4.72C299.361 4.8 299.408 4.89333 299.408 5V14.54C299.408 14.6733 299.361 14.7867 299.268 14.88C299.188 14.96 299.081 15 298.948 15H298.008C297.861 15 297.748 14.96 297.668 14.88C297.588 14.7867 297.548 14.6733 297.548 14.54V6.56L298.108 6.54L292.008 14.7C291.955 14.7667 291.888 14.8333 291.808 14.9C291.728 14.9667 291.621 15 291.488 15H290.588ZM294.828 3.22C294.055 3.22 293.448 3.1 293.008 2.86C292.568 2.62 292.261 2.31333 292.088 1.94C291.915 1.55333 291.828 1.15333 291.828 0.739999C291.828 0.633333 291.855 0.546666 291.908 0.48C291.975 0.399999 292.075 0.359999 292.208 0.359999H292.888C293.008 0.359999 293.101 0.399999 293.168 0.48C293.235 0.546666 293.268 0.633333 293.268 0.739999C293.268 1.04667 293.368 1.33333 293.568 1.6C293.781 1.85333 294.201 1.98 294.828 1.98C295.468 1.98 295.888 1.85333 296.088 1.6C296.288 1.33333 296.388 1.04667 296.388 0.739999C296.388 0.633333 296.421 0.546666 296.488 0.48C296.555 0.399999 296.648 0.359999 296.768 0.359999H297.468C297.588 0.359999 297.681 0.399999 297.748 0.48C297.815 0.546666 297.848 0.633333 297.848 0.739999C297.848 1.15333 297.755 1.55333 297.568 1.94C297.395 2.31333 297.088 2.62 296.648 2.86C296.208 3.1 295.601 3.22 294.828 3.22ZM310.138 15.2C309.471 15.2 308.864 15.0667 308.318 14.8C307.771 14.5333 307.331 14.1733 306.998 13.72C306.664 13.2667 306.498 12.7533 306.498 12.18C306.498 11.26 306.871 10.5267 307.618 9.98C308.364 9.43333 309.338 9.07333 310.538 8.9L313.518 8.48V7.9C313.518 7.26 313.331 6.76 312.958 6.4C312.598 6.04 312.004 5.86 311.178 5.86C310.578 5.86 310.091 5.98 309.718 6.22C309.358 6.46 309.104 6.76667 308.958 7.14C308.878 7.34 308.738 7.44 308.538 7.44H307.638C307.491 7.44 307.378 7.4 307.298 7.32C307.231 7.22667 307.198 7.12 307.198 7C307.198 6.8 307.271 6.55333 307.418 6.26C307.578 5.96667 307.818 5.68 308.138 5.4C308.458 5.12 308.864 4.88667 309.358 4.7C309.864 4.5 310.478 4.4 311.198 4.4C311.998 4.4 312.671 4.50667 313.218 4.72C313.764 4.92 314.191 5.19333 314.498 5.54C314.818 5.88667 315.044 6.28 315.178 6.72C315.324 7.16 315.398 7.60667 315.398 8.06V14.54C315.398 14.6733 315.351 14.7867 315.258 14.88C315.178 14.96 315.071 15 314.938 15H314.018C313.871 15 313.758 14.96 313.678 14.88C313.598 14.7867 313.558 14.6733 313.558 14.54V13.68C313.384 13.92 313.151 14.16 312.858 14.4C312.564 14.6267 312.198 14.82 311.758 14.98C311.318 15.1267 310.778 15.2 310.138 15.2ZM310.558 13.7C311.104 13.7 311.604 13.5867 312.058 13.36C312.511 13.12 312.864 12.7533 313.118 12.26C313.384 11.7667 313.518 11.1467 313.518 10.4V9.84L311.198 10.18C310.251 10.3133 309.538 10.54 309.058 10.86C308.578 11.1667 308.338 11.56 308.338 12.04C308.338 12.4133 308.444 12.7267 308.658 12.98C308.884 13.22 309.164 13.4 309.498 13.52C309.844 13.64 310.198 13.7 310.558 13.7ZM318.733 15C318.6 15 318.486 14.96 318.393 14.88C318.313 14.7867 318.273 14.6733 318.273 14.54V5.06C318.273 4.92667 318.313 4.82 318.393 4.74C318.486 4.64667 318.6 4.6 318.733 4.6H319.673C319.806 4.6 319.913 4.64667 319.993 4.74C320.086 4.82 320.133 4.92667 320.133 5.06V8.9H321.953L324.653 4.9C324.72 4.80667 324.793 4.73333 324.873 4.68C324.953 4.62667 325.06 4.6 325.193 4.6H326.233C326.353 4.6 326.453 4.62667 326.533 4.68C326.613 4.73333 326.653 4.81333 326.653 4.92C326.653 4.94667 326.64 4.98667 326.613 5.04C326.6 5.08 326.58 5.12 326.553 5.16L323.553 9.58L326.953 14.42C327.02 14.5 327.053 14.5867 327.053 14.68C327.053 14.7867 327.013 14.8667 326.933 14.92C326.866 14.9733 326.773 15 326.653 15H325.433C325.313 15 325.213 14.9733 325.133 14.92C325.053 14.8667 324.98 14.7933 324.913 14.7L321.973 10.52H320.133V14.54C320.133 14.6733 320.086 14.7867 319.993 14.88C319.913 14.96 319.806 15 319.673 15H318.733ZM329.456 15C329.322 15 329.209 14.96 329.116 14.88C329.036 14.7867 328.996 14.6733 328.996 14.54V5.06C328.996 4.92667 329.036 4.82 329.116 4.74C329.209 4.64667 329.322 4.6 329.456 4.6H330.396C330.529 4.6 330.636 4.64667 330.716 4.74C330.809 4.82 330.856 4.92667 330.856 5.06V8.9H332.676L335.376 4.9C335.442 4.80667 335.516 4.73333 335.596 4.68C335.676 4.62667 335.782 4.6 335.916 4.6H336.956C337.076 4.6 337.176 4.62667 337.256 4.68C337.336 4.73333 337.376 4.81333 337.376 4.92C337.376 4.94667 337.362 4.98667 337.336 5.04C337.322 5.08 337.302 5.12 337.276 5.16L334.276 9.58L337.676 14.42C337.742 14.5 337.776 14.5867 337.776 14.68C337.776 14.7867 337.736 14.8667 337.656 14.92C337.589 14.9733 337.496 15 337.376 15H336.156C336.036 15 335.936 14.9733 335.856 14.92C335.776 14.8667 335.702 14.7933 335.636 14.7L332.696 10.52H330.856V14.54C330.856 14.6733 330.809 14.7867 330.716 14.88C330.636 14.96 330.529 15 330.396 15H329.456ZM342.618 15.2C341.952 15.2 341.345 15.0667 340.798 14.8C340.252 14.5333 339.812 14.1733 339.478 13.72C339.145 13.2667 338.978 12.7533 338.978 12.18C338.978 11.26 339.352 10.5267 340.098 9.98C340.845 9.43333 341.818 9.07333 343.018 8.9L345.998 8.48V7.9C345.998 7.26 345.812 6.76 345.438 6.4C345.078 6.04 344.485 5.86 343.658 5.86C343.058 5.86 342.572 5.98 342.198 6.22C341.838 6.46 341.585 6.76667 341.438 7.14C341.358 7.34 341.218 7.44 341.018 7.44H340.118C339.972 7.44 339.858 7.4 339.778 7.32C339.712 7.22667 339.678 7.12 339.678 7C339.678 6.8 339.752 6.55333 339.898 6.26C340.058 5.96667 340.298 5.68 340.618 5.4C340.938 5.12 341.345 4.88667 341.838 4.7C342.345 4.5 342.958 4.4 343.678 4.4C344.478 4.4 345.152 4.50667 345.698 4.72C346.245 4.92 346.672 5.19333 346.978 5.54C347.298 5.88667 347.525 6.28 347.658 6.72C347.805 7.16 347.878 7.60667 347.878 8.06V14.54C347.878 14.6733 347.832 14.7867 347.738 14.88C347.658 14.96 347.552 15 347.418 15H346.498C346.352 15 346.238 14.96 346.158 14.88C346.078 14.7867 346.038 14.6733 346.038 14.54V13.68C345.865 13.92 345.632 14.16 345.338 14.4C345.045 14.6267 344.678 14.82 344.238 14.98C343.798 15.1267 343.258 15.2 342.618 15.2ZM343.038 13.7C343.585 13.7 344.085 13.5867 344.538 13.36C344.992 13.12 345.345 12.7533 345.598 12.26C345.865 11.7667 345.998 11.1467 345.998 10.4V9.84L343.678 10.18C342.732 10.3133 342.018 10.54 341.538 10.86C341.058 11.1667 340.818 11.56 340.818 12.04C340.818 12.4133 340.925 12.7267 341.138 12.98C341.365 13.22 341.645 13.4 341.978 13.52C342.325 13.64 342.678 13.7 343.038 13.7ZM351.233 18.8C351.087 18.8 350.973 18.7533 350.893 18.66C350.813 18.58 350.773 18.4733 350.773 18.34V17.66C350.773 17.5267 350.813 17.4133 350.893 17.32C350.973 17.24 351.087 17.2 351.233 17.2H351.753C352.06 17.2 352.307 17.14 352.493 17.02C352.68 16.9 352.847 16.6933 352.993 16.4C353.153 16.12 353.34 15.7333 353.553 15.24L357.893 4.94C357.933 4.83333 357.987 4.75333 358.053 4.7C358.133 4.63333 358.247 4.6 358.393 4.6H359.273C359.393 4.6 359.493 4.64 359.573 4.72C359.653 4.8 359.693 4.89333 359.693 5C359.693 5.05333 359.687 5.10667 359.673 5.16C359.66 5.2 359.633 5.26667 359.593 5.36L355.793 14.36C355.593 14.84 355.373 15.34 355.133 15.86C354.907 16.38 354.647 16.86 354.353 17.3C354.073 17.7533 353.74 18.1133 353.353 18.38C352.967 18.66 352.513 18.8 351.993 18.8H351.233ZM354.013 14.7L349.973 5.36C349.907 5.2 349.873 5.08667 349.873 5.02C349.887 4.9 349.933 4.8 350.013 4.72C350.093 4.64 350.187 4.6 350.293 4.6H351.233C351.38 4.6 351.487 4.63333 351.553 4.7C351.633 4.76667 351.693 4.84667 351.733 4.94L355.053 12.88L354.013 14.7ZM362.17 15C362.037 15 361.924 14.96 361.83 14.88C361.75 14.7867 361.71 14.6733 361.71 14.54V5.06C361.71 4.92667 361.75 4.82 361.83 4.74C361.924 4.64667 362.037 4.6 362.17 4.6H363.13C363.264 4.6 363.37 4.64667 363.45 4.74C363.53 4.82 363.57 4.92667 363.57 5.06V8.9H369.03V5.06C369.03 4.92667 369.07 4.82 369.15 4.74C369.244 4.64667 369.357 4.6 369.49 4.6H370.43C370.564 4.6 370.67 4.64667 370.75 4.74C370.844 4.82 370.89 4.92667 370.89 5.06V14.54C370.89 14.6733 370.844 14.7867 370.75 14.88C370.67 14.96 370.564 15 370.43 15H369.49C369.357 15 369.244 14.96 369.15 14.88C369.07 14.7867 369.03 14.6733 369.03 14.54V10.5H363.57V14.54C363.57 14.6733 363.53 14.7867 363.45 14.88C363.37 14.96 363.264 15 363.13 15H362.17ZM377.078 15C376.945 15 376.831 14.96 376.738 14.88C376.658 14.7867 376.618 14.6733 376.618 14.54V6.2H373.138C373.005 6.2 372.891 6.16 372.798 6.08C372.718 5.98667 372.678 5.87333 372.678 5.74V5.06C372.678 4.92667 372.718 4.82 372.798 4.74C372.891 4.64667 373.005 4.6 373.138 4.6H381.938C382.071 4.6 382.178 4.64667 382.258 4.74C382.351 4.82 382.398 4.92667 382.398 5.06V5.74C382.398 5.87333 382.351 5.98667 382.258 6.08C382.178 6.16 382.071 6.2 381.938 6.2H378.458V14.54C378.458 14.6733 378.418 14.7867 378.338 14.88C378.258 14.96 378.145 15 377.998 15H377.078Z" fill="#C67DC7"/>
<path d="M143.043 16.6H177.5V17.6H143.043V16.6ZM190.461 16.6H349.781V17.6H190.461V16.6ZM355.773 16.6H382.658V17.6H355.773V16.6Z" fill="#C67DC7"/>
</svg>
